<svg xmlns="http://www.w3.org/2000/svg" width="60" height="60.007" viewBox="0 0 60 60.007">
  <g id="Layer_x0020_1" transform="translate(0 -0.001)">
    <g id="_1421344023328" transform="translate(0 0.001)">
      <path id="Path_1" data-name="Path 1" d="M59.1,37.262A29.993,29.993,0,1,1,37.254.9,30,30,0,0,1,59.1,37.262h0Z" transform="translate(0 -0.001)" fill="#f7931a"/>
      <path id="Path_2" data-name="Path 2" d="M1024.541,728.26c.606-4.054-2.48-6.233-6.7-7.687l1.369-5.492-3.343-.833-1.333,5.347c-.879-.219-1.781-.426-2.678-.63l1.343-5.382-3.341-.833-1.37,5.49c-.727-.166-1.442-.329-2.135-.5l0-.017-4.61-1.151-.889,3.57s2.48.569,2.428.6a1.779,1.779,0,0,1,1.558,1.944l-1.56,6.256a2.712,2.712,0,0,1,.348.112l-.353-.087-2.186,8.764a1.216,1.216,0,0,1-1.532.794c.034.049-2.43-.606-2.43-.606l-1.66,3.827,4.35,1.084c.809.2,1.6.415,2.383.615L1000.82,749l3.339.833,1.37-5.5c.912.248,1.8.476,2.664.691l-1.365,5.47,3.343.833,1.383-5.544c5.7,1.079,9.987.644,11.791-4.512,1.454-4.151-.072-6.546-3.071-8.107,2.184-.5,3.83-1.94,4.268-4.908h0Zm-7.638,10.71c-1.033,4.151-8.022,1.907-10.289,1.344l1.836-7.359c2.266.566,9.532,1.685,8.453,6.014Zm1.034-10.77c-.942,3.776-6.76,1.858-8.647,1.387l1.664-6.674c1.887.47,7.964,1.348,6.983,5.287Z" transform="translate(-981.077 -702.574)" fill="#fff"/>
    </g>
  </g>
</svg>
