<svg id="Layer_2" data-name="Layer 2" xmlns="http://www.w3.org/2000/svg" width="60" height="60" viewBox="0 0 60 60">
  <g id="Layer_1" data-name="Layer 1">
    <g id="Layer_1-2" data-name="Layer_1">
      <circle id="Ellipse_1" data-name="Ellipse 1" cx="30" cy="30" r="30" fill="#988430"/>
      <circle id="Ellipse_2" data-name="Ellipse 2" cx="28.877" cy="28.877" r="28.877" transform="translate(1.071 1.071)" fill="#7a6a2a"/>
      <circle id="Ellipse_3" data-name="Ellipse 3" cx="28.195" cy="28.195" r="28.195" transform="translate(1.754 1.754)" fill="#ba9f33"/>
      <path id="Path_3" data-name="Path 3" d="M141.886,723.291c-.189-.173-.39-.346-.574-.519s-.373-.346-.563-.519l-.563-.535c-.092-.092-.189-.173-.282-.266s-.2-.173-.292-.254c-.747-.709-1.5-1.418-2.235-2.127.763.7,1.51,1.392,2.273,2.1l.265.265c.092.092.189.173.282.265l.563.52c.189.173.374.346.563.535s.374.362.563.535Zm-9.915-.107s2.717.281,4.043.471c1.228.173,5.071.763,5.071.763Zm0,0c.763.065,1.526.146,2.289.227.39.038.763.081,1.137.119l.573.065.563.081,2.273.362,1.136.19c.374.065.747.135,1.137.2-.374-.038-.763-.092-1.137-.146l-1.136-.162-2.273-.335c-.189-.027-.374-.065-.563-.092l-.574-.066c-.374-.038-.763-.092-1.137-.136-.763-.092-1.526-.19-2.289-.308Zm8.844,1.942s-2.9.736-3.881,1.018c-.963.265-3.881,1.153-3.881,1.153l7.761-2.17Z" transform="translate(-127.262 -696.471)" fill="#cfb66c" fill-rule="evenodd"/>
      <path id="Path_4" data-name="Path 4" d="M170.669,888.8c-.644.19-1.284.374-1.938.547l-1.938.519c-.644.189-1.284.373-1.927.563l-.963.265c-.319.092-.644.173-.974.265.319-.107.644-.216.963-.309l.963-.308c.644-.2,1.284-.39,1.927-.59.655-.162,1.3-.336,1.954-.493.622-.157,1.277-.314,1.932-.46h0Zm-7.355,3.957c.319-.119,4-1.835,4.855-2.235.428-.2,1.673-.642,1.673-.642Z" transform="translate(-157.117 -860.609)" fill="#cfb66c" fill-rule="evenodd"/>
      <path id="Path_5" data-name="Path 5" d="M173.69,922.757c.281-.107.547-.238.817-.362l.8-.374,1.608-.774c.535-.254,1.055-.535,1.607-.774.281-.119.563-.216.844-.308l.428-.135c.146-.038.281-.081.428-.119-.535.254-1.1.471-1.634.72-.535.265-1.082.482-1.635.72l-1.634.72c-.549.222-1.084.46-1.63.688h0Zm.357,1.5s3.334-1.954,4.481-2.582c.6-.335,2.544-1.3,2.544-1.3Z" transform="translate(-167.493 -890.756)" fill="#cfb66c" fill-rule="evenodd"/>
      <path id="Path_6" data-name="Path 6" d="M183.71,936.541c.563-.346,1.136-.7,1.71-1.055l.856-.52c.292-.173.574-.335.872-.508s.574-.346.871-.509a3.116,3.116,0,0,1,.444-.227l.455-.227c.6-.292,1.2-.59,1.835-.844-.574.363-1.164.671-1.754.99-.292.162-.59.309-.882.471s-.574.336-.872.493c-.292.173-.574.335-.871.492l-.882.482-1.781.963h0Zm7-3.453s-2.073,1.591-2.744,2.1-2.647,1.938-2.647,1.938Z" transform="translate(-177.155 -903.1)" fill="#cfb66c" fill-rule="evenodd"/>
      <path id="Path_7" data-name="Path 7" d="M684.62,709.372l-1.061-2.008.617-2.511,4.4-1.7-1.873-3.843.925-3.881,1.738-3.475,5.369-.844,3.945-3.762,8.519.644,1.672,9.109-3.22,11.469-1.835,5.938-7.437.281-3.453-2.392-4.043-1.689Z" transform="translate(-663.267 -667.166)" fill="#e2cc85" fill-rule="evenodd"/>
      <path id="Path_8" data-name="Path 8" d="M417.519,1092.432a6.28,6.28,0,0,1-2.783.363c-.508-.682-4.063-1-4.063-1a1.988,1.988,0,0,0-1.229.19,13.663,13.663,0,0,1-2.235.455c-.7.173-1.391-.736-1.927-.926a7.52,7.52,0,0,1-1.245-.682l-1.5-.146-3.009-1.272-4.78-4.763-1.3,2.034-.4,2.517,1.445,2.982,3.891,3.545,7.588,1.927,4.5-1.325,5.634-2.381,1.413-1.515Z" transform="translate(-381.335 -1050.968)" fill="#f1d789" fill-rule="evenodd"/>
      <path id="Path_9" data-name="Path 9" d="M304.841,692.909l.963-2.917,1.148-1.884,3.7-.309-1.11,3.237-3.09,5.5,1.283,4.909-2.273,1.136-.7-1.071-.563-2.457-.038-2.76Z" transform="translate(-294.563 -666.55)" fill="#f4ecb4" fill-rule="evenodd"/>
      <path id="Path_10" data-name="Path 10" d="M313.8,863.437l-.709-.99a1.626,1.626,0,0,1-.081-.882c.107-.417.092-.444.038-.6s-.509-.7-.482-1.164-.038-.628.308-1a1.256,1.256,0,0,0,.254-.99l.471.292.107-.162a.482.482,0,0,1,.173.346c.038-.292-.119-1.645.238-1.954s.99,1.445.99,1.445l-.39-2.544-1-2.608-1.781-2.382-.107-2.625v-.227a8.836,8.836,0,0,0-1.045,2.248c-.162.682.227,1.51.146,2.49-.065.974-.146.9.092,1.284s.817,1.18.59,1.754c-.2.493-.882.146-.882.146a1.481,1.481,0,0,1-.319.547,1.212,1.212,0,0,0-.265-.535c-.011.092-.038.216-.038.216s-.119-.374-.238-.844c-.162-.628-.335-1.456-.492-1.9-.065.254-.227,1.028-.227,1.028l.092,1.191.444,1.634.428,1.07.417,1.31.362.88.292.671.254,1.51,1.228,1.3.655.292.476-.244h0Z" transform="translate(-299.385 -821.33)" fill="#f3e19d" fill-rule="evenodd"/>
      <path id="Path_11" data-name="Path 11" d="M300.479,717.942a10.289,10.289,0,0,0-1.136,3.009,19.9,19.9,0,0,0-.321,5.163,21.382,21.382,0,0,0,.72,4.254,23.711,23.711,0,0,0,1.537,3.61l.038-.081a5.707,5.707,0,0,1-.444-1.11c-.146-.574-.2-1.255-.336-1.564a7.471,7.471,0,0,1-.417-.953,4.071,4.071,0,0,0-.39-1.364,2.764,2.764,0,0,1-.309-1.082c-.054-.682.027-1.445-.038-2.073a8.336,8.336,0,0,1-.092-2.3c.108-.547.671-2.1,1.018-3.334.227-.79.092-1.456.508-2.143a6.054,6.054,0,0,0,.763-1.7c.107-.379-1.1,1.667-1.1,1.667h0Z" transform="translate(-288.302 -694.306)" fill="#f2e8b0" fill-rule="evenodd"/>
      <path id="Path_12" data-name="Path 12" d="M377.856,747.42a1.77,1.77,0,0,0-.671.374,9.755,9.755,0,0,0-.6.8,6.285,6.285,0,0,0-.547,1.18c-.238.471-.763,1.18-.828,1.434s-.173,1.445-.308,2.008a2.7,2.7,0,0,0,.135,1.256l.308-.065a.972.972,0,0,0,.309.671c.308.265.363-.9.363-.9l1.153-3.891,1.737-1.18.189-.953-1.239-.736h0Z" transform="translate(-362.986 -723.901)" fill="#f5eec0" fill-rule="evenodd"/>
      <path id="Path_13" data-name="Path 13" d="M398.245,784.276a2.909,2.909,0,0,0-1.218.346c-.162.119-.227.216-.4.362a2.648,2.648,0,0,0-.8.856,5.68,5.68,0,0,0-.493,1.862c-.054.417-.054.8-.092,1.137a4.732,4.732,0,0,0-.092,1.07c.054.519.59.79.642,1.38l1.11-.563,1.045-4.119,2.219-1.391-1.256-1.407-.665.464h0Z" transform="translate(-382.632 -759.133)" fill="#e6db9d" fill-rule="evenodd"/>
      <path id="Path_14" data-name="Path 14" d="M318.17,1220.315l.014-.123c.162-1.391.189-2.446.308-3.107a8.158,8.158,0,0,0,.265-1.635,7.355,7.355,0,0,1-.027-1.407c.081-.574.644-1.255.628-1.726a1.462,1.462,0,0,0-.363-.844c-.162-.228-.292-.417-.292-.417s1.11-.763,1.1-3.838a.3.3,0,0,1,.065.027l.547,1.553.374.454,1.434,2.674,1.846,1.792,2.728,1.834,1.71,1.861.173,4.963-2.235,2.9-.366.663a31.8,31.8,0,0,1-7.907-5.627Z" transform="translate(-308.225 -1171.147)" fill="#e5cb7a" fill-rule="evenodd"/>
      <path id="Path_15" data-name="Path 15" d="M509.56,1317.8a1.529,1.529,0,0,1,.547-1.018.607.607,0,0,1,.119.363,3.227,3.227,0,0,1,2.192-1.472,2.252,2.252,0,0,0,1.808-1.326l3.09-2.809,3.534-3.253,4.3-1.51,2.008-.493a1.109,1.109,0,0,1-.038.471,9.771,9.771,0,0,0,2.062-.519c.346-.135.671-.19.845-.011a1.856,1.856,0,0,1,.308,1.136c.417-.092.9-.492,1.284-.454.617.065,1.164.79,1.792.79.828,0,1.2-.509,1.781-.909.346-.238.844-.535,1.126-.736.671-.493,7.772-2.663,7.772-2.663l2.49.162.4,2.674-.214,6.989-.08.077-11.32,5.912-15.691,2.405a31.471,31.471,0,0,1-10.031-3.45l-.08-.357h0Z" transform="translate(-495.681 -1263.886)" fill="#d8c173" fill-rule="evenodd"/>
      <path id="Path_16" data-name="Path 16" d="M344.85,1572.295c.223-.466.424-.856.459-1,.028.281.079.9.182,1.554q-.324-.275-.64-.558Z" transform="translate(-332.546 -1522.238)" fill="#f1d789" fill-rule="evenodd"/>
      <path id="Path_17" data-name="Path 17" d="M666.053,1436.147l2.029-.564.173.054s.092.054.092.238c.254-.146.471-.119.628-.216.081.173.162.747.52.817a1.589,1.589,0,0,0,1.18-.47,7.865,7.865,0,0,1,1.2-.883,6.5,6.5,0,0,1,.336.72c.455-.362,1.245-1.835,2.37-1.808a4.272,4.272,0,0,1,1.563-1.889,3.4,3.4,0,0,1,2.517-.7,4.3,4.3,0,0,1,1.18-1.055,1.087,1.087,0,0,0,.974.065c.471-.216,1-1.056,1.7-1.164a1.641,1.641,0,0,1,1.083.227,17.658,17.658,0,0,1,3.437-2.69c-.054-.162-.162-.774,1.483-2.127.092.082.027.309.092.321a3.812,3.812,0,0,0,.936-.563,7.618,7.618,0,0,1,1.835-1.1,2.568,2.568,0,0,1,1.765.265.818.818,0,0,1,.254-.119,3.375,3.375,0,0,0,.492-.107,3.423,3.423,0,0,1,0,1.18,2.624,2.624,0,0,0,.535.227,2.419,2.419,0,0,1-.628.953c.281.135.319.292.72.428a7.951,7.951,0,0,0-.547.856c-.119.254-.547,1.31-.736,1.71s-.471,1.137-.6,1.284a10.266,10.266,0,0,1-.963,1.082c.321-.119,1.635-.519,2.192-.671-.166.243-1.007,1.491-1.815,2.691a31.758,31.758,0,0,1-26,3.01Z" transform="translate(-646.604 -1379.512)" fill="#e0cd81" fill-rule="evenodd"/>
      <path id="Path_18" data-name="Path 18" d="M470.519,705.326a1.957,1.957,0,0,0-.563.065c-.092.065.471.2.644.265a1.479,1.479,0,0,1,.644.6,27.45,27.45,0,0,0,3.383,1.553l2.327-.119.8-1.108-1.526-1.337,1.07-3.155-1.418.227-3.41,2.034-1.71.655-.244.32Z" transform="translate(-455.163 -679.902)" fill="#dfc57c" fill-rule="evenodd"/>
      <path id="Path_19" data-name="Path 19" d="M629.057,793.525a.365.365,0,0,0,.321.173,1.44,1.44,0,0,1,1.109.362c.309.39,1.164,1.635,1.164,1.635l2.046.736.132-2.409-2.235-1.553-2.544.936v.119h.006Z" transform="translate(-609.131 -767.335)" fill="#e5cc7c" fill-rule="evenodd"/>
      <path id="Path_20" data-name="Path 20" d="M584.711,831.417a2.223,2.223,0,0,0,.844-.146c.471-.173,1.245-.547,1.581-.4.471.2.373.828.882,1.391.308.346.871.336,1.191.709s1.418.2,1.418.2l.417,2.248-1.672,2.144-.547,2.663h-2.261l-2.066-.82-1.018-2.462.509-2.49.723-3.037Z" transform="translate(-565.114 -804.796)" fill="#d2c281" fill-rule="evenodd"/>
      <path id="Path_21" data-name="Path 21" d="M739,762.25a.609.609,0,0,0,.173.027.448.448,0,0,0-.146.482c.054.309.227.7.081.936a1.171,1.171,0,0,1,.254.444c.092.265.119.509.72.547a1.262,1.262,0,0,0-.238.19,3.95,3.95,0,0,1,.628.7,5.168,5.168,0,0,0,.79-.188l.119.081.254-.107s-.238-.092-.065-.671c.162-.509.309-.482.321-.519a5.316,5.316,0,0,0,.119-.79,9.495,9.495,0,0,0,.146-1.136l-.173-1.889-.974-.59-.792-.765-.747,1.407-.492.491-.038,1.218.059.135Z" transform="translate(-715.469 -735.056)" fill="#e2c270" fill-rule="evenodd"/>
      <path id="Path_22" data-name="Path 22" d="M806.28,523.795a6.628,6.628,0,0,1,.238.871.838.838,0,0,0,.038-.227s.135.747.162,1.056c.054-.011.107-.027.119.027a4.5,4.5,0,0,1,.107.99,2.7,2.7,0,0,1,.909-.909,1.59,1.59,0,0,1,.736-.293c.417-.011.72.265,1.218.265,1.2,0,2.289-.882,3.09-1.153a4.086,4.086,0,0,0,1.456-.671,3.8,3.8,0,0,0,.763-.953c.374-.642.763-1.2,1.153-1.272a2.416,2.416,0,0,1-.535.038s.119-.119.321-.281a1.247,1.247,0,0,1,.79-.363c.617,0,.925.092,1.272.092a1.729,1.729,0,0,0,.547-.092,2.178,2.178,0,0,0,1.18.254c.817.011,1.364.081,1.792.119s1.862-.119,2.273-.107a1.993,1.993,0,0,1,.774.189l-1.326-3.853-4.764-4.164-2.836,2.008-4.363,4.362-4.222,1.564-.882.99v1.51Z" transform="translate(-781.657 -497.425)" fill="#ccb360" fill-rule="evenodd"/>
      <path id="Path_23" data-name="Path 23" d="M1024.508,552.608s.119-.119.319-.281a1.244,1.244,0,0,1,.79-.363c.617,0,.926.092,1.272.092a1.724,1.724,0,0,0,.547-.092,2.182,2.182,0,0,0,1.18.254c.818.011,1.364.081,1.792.119s1.862-.119,2.273-.107a1.98,1.98,0,0,1,.774.189l-.6-1.738-.7-1.326-1.992-2.181-2.409-1.418c-.011-.011-.828-.227-.828-.227l-2.165,1.31-1.964,5.082-.038,1.07,1.272.6c.319-.535.672-.963,1-1.018-.3.032-.525.032-.525.032h0Z" transform="translate(-990.806 -528.378)" fill="#d5b457" fill-rule="evenodd"/>
      <path id="Path_24" data-name="Path 24" d="M863.345,733.761c-.189.011-.346-.027-.39-.162-.162-.455-.292-.519-.428-.519s-.319.292-.428.319-.238-.335-.238-.335l-.119-.054a7.252,7.252,0,0,0-1.191.99,9.891,9.891,0,0,1-1.662,1.607,17.946,17.946,0,0,1-2.034.309,2.636,2.636,0,0,0-.963.471c-.065.07.19.146.228.216s-.417.038-.455.107a1.754,1.754,0,0,0,.173.52.882.882,0,0,1,.373-.092c.417-.011.72.265,1.218.265,1.2,0,2.289-.882,3.09-1.153a4.087,4.087,0,0,0,1.456-.671,3.828,3.828,0,0,0,.763-.953,6.78,6.78,0,0,1,.607-.866h0Z" transform="translate(-828.736 -709.78)" fill="#d2b257" fill-rule="evenodd"/>
      <path id="Path_25" data-name="Path 25" d="M386.842,1249.046a4.523,4.523,0,0,0-1.1-1.434c-.281-.292-.455-.535-.644-.709a8.653,8.653,0,0,0-1.082-.817c-.736-.547-1.537-.547-2.154-1.218a11.211,11.211,0,0,1-1.835-3.264c-.492-1.31-.628-1.727-.628-1.764s.136-.292.309-.255.173.373.217.455a2.674,2.674,0,0,0,.292.373,3.559,3.559,0,0,1,.8,1.164,5.263,5.263,0,0,0-.189-.936s.953.6,1.764,1.229,1.153.844,1.391,1.245a19.219,19.219,0,0,0,1.07,1.765,30.348,30.348,0,0,0,3.96,1.472l1.756,1.309.872,1.911-.682,1.07-1.31.281-2.127-.953-.681-.924h0Z" transform="translate(-367.594 -1200.918)" fill="#d2b159" fill-rule="evenodd"/>
      <path id="Path_26" data-name="Path 26" d="M455.55,1278.064a4.959,4.959,0,0,0,1.526,1.38,14.635,14.635,0,0,0,3.892,1.445,10.881,10.881,0,0,0,2.289.346,32.885,32.885,0,0,0,4.855-.7,23.287,23.287,0,0,0,3.09-.428,15.905,15.905,0,0,0,3.464-1.284c.844-.39,1.618-.682,2.246-1.055a9.55,9.55,0,0,1,2.273-1.272,1.929,1.929,0,0,1-.925,1.18c.39-.011.925-.038.925-.038a17.344,17.344,0,0,0-1.434,1c-.563.428-1.31,1.153-2.073,1.634-.493.309-1.029.535-1.38.72a6.191,6.191,0,0,0-1.764,1.284.762.762,0,0,1,.217,0,4.218,4.218,0,0,0-1.218.362,1.649,1.649,0,0,0-.617.054c-.254.081-.59.265-.936.362a1.18,1.18,0,0,1-.655.082l.081.162s-.642-.011-.856.011c.038.011.027.027.027.027a.328.328,0,0,0-.107.038,1.12,1.12,0,0,1-.335.146c-.065.011-.119.011-.2.027.027.065.238.428.336.642-.081.054-1.3.974-1.3.974a.927.927,0,0,1,.092.189c.038.119.054.292.092.373.092.162.146.189.146.189s-.146.027-.4.092a7.058,7.058,0,0,1-.856.2,3.358,3.358,0,0,1-.346.027.945.945,0,0,1-.146,1.1c-.439.525-.574.6-.709.936a1.476,1.476,0,0,0-.217-.135.908.908,0,0,1-.417-.292,3.457,3.457,0,0,1-.162.509,6.324,6.324,0,0,0-.373.99c-.146-.162-.417-.482-.79-.417s-.671.574-.736.72c0-.092-.065-.162-.081-.054a4.114,4.114,0,0,1-1.364,2.371c-.011-.255-.011-.818-.038-1a2.625,2.625,0,0,1-1.018.6c-.763.335-.642.671-.642.671a1.678,1.678,0,0,1,.346-1.1c.417-.563.671-.828.671-.871a.24.24,0,0,0-.054-.119c-.054-.054-.162-.119-.162-.162a1.088,1.088,0,0,0,.671-.974,1.726,1.726,0,0,0-.455-1.082c-.027-.027.255-.227.217-.292-.027-.038-.373-.292-.417-.428a1.243,1.243,0,0,1,.054-.238.676.676,0,0,0,.054-.281,2.245,2.245,0,0,0-.217-.547,2.993,2.993,0,0,0,.308,0,2.687,2.687,0,0,1-.254-.509,6.6,6.6,0,0,0-.162-.671c.092.011.319.027.319,0,.011-.081-.2-.217-.107-.321a.542.542,0,0,1,.308.216,1.238,1.238,0,0,0-.4-.644.984.984,0,0,1,.79.054,1.062,1.062,0,0,1,.428.455s.189.146.482.363a5.252,5.252,0,0,0,1.445.909,1.5,1.5,0,0,0,.79.027,1.2,1.2,0,0,0,.335-.135.62.62,0,0,1,.119-.054,2.588,2.588,0,0,0-.2-.336c.092,0,.2.011.2.011s.065-.146-.227-.428c.065-.065.146-.107.146-.217a.639.639,0,0,1-.292-.2c.054-.038.135-.162.227-.2-.081-.065-.282-.336-.374-.362a1.7,1.7,0,0,0,.254-.119,3.121,3.121,0,0,1-.6-.217,3.574,3.574,0,0,0-.492-.347c-.136-.054-.374-.081-.471-.189a1.479,1.479,0,0,0,.346,0c.081,0,.119.011.146.011-.011-.038-.011-.119.2-.146a.989.989,0,0,0,.292-.092.747.747,0,0,1-.428-.227,1.666,1.666,0,0,0-.547-.417c-.135-.027-.39.092-.547.081a.493.493,0,0,1-.309-.135,4.527,4.527,0,0,1-2.316-.909,8.166,8.166,0,0,1-1.981-1.591,2.406,2.406,0,0,1-.373-.173c-.52-.271-1.24-.833-1.218-1.57h0Z" transform="translate(-441.92 -1237.955)" fill="#c2a44d" fill-rule="evenodd"/>
      <path id="Path_27" data-name="Path 27" d="M1008.673,391.009a.7.7,0,0,1,.321.217,1,1,0,0,1-.162,1.434.925.925,0,0,0,.519.081,2.53,2.53,0,0,0-.682,1.191.454.454,0,0,0,.2.471,1.8,1.8,0,0,0-.362,1.07,4.326,4.326,0,0,1,.535-.509,14.213,14.213,0,0,1,1.326-.909.764.764,0,0,0,.038.281s.7-.574,1.284-.319c.265.119.146.492.146.492a.619.619,0,0,1,.617.119,11.516,11.516,0,0,1,.8,1.165,8.494,8.494,0,0,1,.508.7,8.824,8.824,0,0,1,.736,1.553c.011-.281.081-.72.882-.444a4.915,4.915,0,0,1,2.473,2.034c.763,1.162.952,2.474,1.337,2.973a4.236,4.236,0,0,1,.817,1.618,14.173,14.173,0,0,0,.682,4.346c.227-.909.574-2.928.574-2.928l.19-1.781.216-5.51-5.753-4.78-4.5-3.264-2.928.281.184.417h0Z" transform="translate(-977.188 -378.385)" fill="#caa13e" fill-rule="evenodd"/>
      <path id="Path_28" data-name="Path 28" d="M1112.593,246.344s-.081-.535-1.434-1.445-2.409-.9-3.383-1.662c-.747-.6-1.526-1.981-2.034-2.436a3.315,3.315,0,0,1-.574-1.748l1.662-1.391,2.471-3.572,2.089-2.3,1,1.391,1.391,1.634.774,3.28.282,4.8-2.248,3.448Z" transform="translate(-1070.553 -223.52)" fill="#b59544" fill-rule="evenodd"/>
      <path id="Path_29" data-name="Path 29" d="M1310.6,524.625a6.1,6.1,0,0,0-.266-2.154,39.7,39.7,0,0,0-1.5-3.818c-.146-.817-.038-.882.119-.974a2.393,2.393,0,0,0,1.07-1.607,1.525,1.525,0,0,1,1.326-1.218l.617-.455.937,2.343.817,2.116.255,1.618.189,1.38-.444,2.917-2.192,1.981-.931-2.131h0Z" transform="translate(-1267.377 -498.398)" fill="#c89d3a" fill-rule="evenodd"/>
      <path id="Path_30" data-name="Path 30" d="M502.89,1700.78v-.06a.456.456,0,0,0,.119-.107c.038-.054.065-.119.092-.135a1.017,1.017,0,0,1,.444-.081,3.42,3.42,0,0,0,.682.162,4.481,4.481,0,0,1,1.564-.173c1.082.2,1.337.936,1.965,1.353a1.245,1.245,0,0,0,.936.162h.146c.027,0,.227-.227.336-.216.217.011.238.189.373.2a12.1,12.1,0,0,1,1.245-.081.594.594,0,0,1,.39.389.6.6,0,0,1-.146.6,2.4,2.4,0,0,0-.72.856,3.056,3.056,0,0,1,.238.2,31.5,31.5,0,0,1-7.663-3.068Z" transform="translate(-487.088 -1646.684)" fill="#ceb052" fill-rule="evenodd"/>
      <path id="Path_31" data-name="Path 31" d="M1310.68,710.629a18.733,18.733,0,0,0,1.137-1.683c.292-.575-.926-7.853-.926-7.853l2.446-8.016-.065-2.609a23.973,23.973,0,0,1,.4-3.453c.336.6,1.38,1.326,1.608,1.71a19.9,19.9,0,0,0,.417-3.946,29.53,29.53,0,0,1,.682,3.41l.482,2.089.628,2.219.7,2.344.417,1.618.238.39.2.682.189.736.547,1.726.321,1.418.254,2.571a3.915,3.915,0,0,1,.119.6,2.5,2.5,0,0,1-.038.493,5.914,5.914,0,0,1,.054,1.045,1.471,1.471,0,0,1-.39,1.07,6.479,6.479,0,0,0-.547,2.143l-.6-.4a1.631,1.631,0,0,0-.162-1.045,1.055,1.055,0,0,0-1.137-.519,3.433,3.433,0,0,0-1.126.335,3.52,3.52,0,0,1-2.955,1.407,5,5,0,0,0-1.537.8,8.591,8.591,0,0,1-1.353.714h0Z" transform="translate(-1269.641 -664.505)" fill="#cca847" fill-rule="evenodd"/>
      <path id="Path_32" data-name="Path 32" d="M1310.68,1297.932s.036.023.1.061a31.791,31.791,0,0,0,10.133-7.51c-.031-1.1-.071-2.218-.116-2.634-.091-.882-.027-1.781-.054-2.3s-.319-2.636-.454-3.183a1.386,1.386,0,0,0-.471-.817,6.533,6.533,0,0,0-.265,1.285c0,.256-.054.872-.054,1.028-.038-.011-.054-.107-.054-.146-.054.135-.119.374-.146.4s.038-.227,0-.281-.107-.027-.092-.162a1.534,1.534,0,0,1,.038-.238,2.484,2.484,0,0,0-.281.844c-.119.6-.119.617-.162.671s-.254.282-.265.363c-.011.146.2.292.217.373.01.136-.19.763-.255,1.07s-.038.909-.107,1.218c-.054.281-.107.444-.292.563.135.027.265.065.265.065a2,2,0,0,1-.292,1.483c-.173.238-.216.346-.4.563a2.489,2.489,0,0,0-.671,1.153,1.923,1.923,0,0,1-.038-.266,12.815,12.815,0,0,0-.8,1.029c-.308.482-.736.455-.856.574a.57.57,0,0,0-.107.509c-.107.027-.308.065-.444.482a1.014,1.014,0,0,1-.482.574,2.564,2.564,0,0,1-.72.227.871.871,0,0,1,.254.081,4.3,4.3,0,0,1-.871.617,1.822,1.822,0,0,0-.72.871.624.624,0,0,1-.519.4c.107.065.265.216.346.265a1.2,1.2,0,0,0-.682.336c-.379.314-.509.406-.682.433h0Z" transform="translate(-1270.917 -1242.825)" fill="#c39d3c" fill-rule="evenodd"/>
      <path id="Path_33" data-name="Path 33" d="M1099.551,1778.657a3.06,3.06,0,0,1,.668-.354,14.283,14.283,0,0,1,2.089-.508,7.645,7.645,0,0,1,1.018-.336c-.011.095-.02.184-.03.268a31.557,31.557,0,0,1-3.746.93Z" transform="translate(-1064.662 -1721.042)" fill="#d2ba6b" fill-rule="evenodd"/>
      <path id="Path_34" data-name="Path 34" d="M1202.459,813.945a6.657,6.657,0,0,1-.482,1.526c-.309.59-.642,1.407-.642,1.407a2.578,2.578,0,0,1,.065-.547,15.386,15.386,0,0,0-1.606,1.018,5.438,5.438,0,0,0-.79.817,16.371,16.371,0,0,0,.563-1.726,34.8,34.8,0,0,0-3.155,2.771l-2.95,2.387a10.2,10.2,0,0,1-1.05.492c-.508.216-1.109.4-1.553.574a2.46,2.46,0,0,1,.574-.872,6.383,6.383,0,0,0,1.255-1.606,1.46,1.46,0,0,0-.011-1.083c-.146.038-.482.054-.709.119a1.387,1.387,0,0,0-.471.308,11.094,11.094,0,0,1,.547-1.927c-.281.011-.763.092-.763.092a6.867,6.867,0,0,1,1.819-1.91,5.936,5.936,0,0,0-1.028.319c-.671.282-1.407.7-1.954.926a43.043,43.043,0,0,0,3.761-6.4c1.284-2.874,1.764-3.61,2.046-5.152a23.5,23.5,0,0,0,.146-2.9,19.472,19.472,0,0,0,.081-2.5,5.945,5.945,0,0,1,1.635,4.216,16.142,16.142,0,0,1-2.517,8.08c.321.092,1.153.2,2.008-1.284a17.47,17.47,0,0,0,1.153-2.517,2.242,2.242,0,0,1,.027.417,11.337,11.337,0,0,0,1.835-3.41,4.7,4.7,0,0,1-.081,3.037,3,3,0,0,1-1.136,1.683,2.557,2.557,0,0,0,.79-.336c.081.2.065.428.2.509s.319.216.346.346a3.974,3.974,0,0,0,.444-.7,14.786,14.786,0,0,0,.107,3.253,1.1,1.1,0,0,0,1.137-.817,3.346,3.346,0,0,0-.065,1.808,2.125,2.125,0,0,0,.422-.422h0Z" transform="translate(-1153.096 -776.033)" fill="#c0993a" fill-rule="evenodd"/>
      <path id="Path_35" data-name="Path 35" d="M866.354,350.794a3.19,3.19,0,0,1-1.126.173c-.617,0-.444-.238-1.407-.238-1.483,0-6.662.856-7.572.844a19.953,19.953,0,0,0,1.992.254l6.6.092,1.326-.107.493-1Z" transform="translate(-829.4 -339.547)" fill="#a88f33" fill-rule="evenodd"/>
      <path id="Path_36" data-name="Path 36" d="M604.094,681.841a7.537,7.537,0,0,0-1.2,1.137,8.382,8.382,0,0,1-.953,1.218.83.83,0,0,0,.281-.038s0,.107-.065.135a.379.379,0,0,1,.308.107.55.55,0,0,0-.189.774.833.833,0,0,0,.59.319s-.092.265.292.238a21.869,21.869,0,0,1,2.181-.309,1.2,1.2,0,0,1,.974.671c.321.52.6.6.6.6a3.072,3.072,0,0,0,.146-1.2,3.572,3.572,0,0,0,.254-1.218l-.281-2.073-1.228-1.553-1.591.882-.119.308Z" transform="translate(-582.903 -659.154)" fill="#e3c571" fill-rule="evenodd"/>
      <path id="Path_37" data-name="Path 37" d="M704.64,483.471s.119.281.617.308a.28.28,0,0,0-.038.227l.027.227a.5.5,0,0,0,.146-.107c.027.119-.027.308,0,.444a.985.985,0,0,0,.081.238.468.468,0,0,1,.027-.054,2.127,2.127,0,0,0,.373.535.223.223,0,0,1,.027-.107.374.374,0,0,0,.065.189.2.2,0,0,1-.054-.038,6.179,6.179,0,0,0,.173,1.3.607.607,0,0,0,.065-.092c0-.027-.011.238-.038.428a1.872,1.872,0,0,0-.011.455,1.422,1.422,0,0,1,.319-.189,1.156,1.156,0,0,0,.59-.709,4.738,4.738,0,0,0,.217-.774,1.077,1.077,0,0,1,.107.321c.011.135.266.065.266.065l.054-.59.321-1.337.292-.828,1.407-2.192,2.542-1.958,2.219.509,1.872-2.544-3.226-1.938-3.053.319-2.77,3.837-2.219,3.48-.4.574h0Z" transform="translate(-682.68 -460.468)" fill="#d8b65b" fill-rule="evenodd"/>
      <path id="Path_38" data-name="Path 38" d="M803.114,407.783a3.524,3.524,0,0,0-.736.321c-.547.283-.926.373-1.137.79a2.049,2.049,0,0,0-.227.747,5.176,5.176,0,0,1,.59-.217c.227-.054.482-.038.455.054a.631.631,0,0,1-.107.173s.428-.011.417.2a1.116,1.116,0,0,1-.162.547c-.081.107-.417.265-.455.39-.092.254.038.265-.011.471a3.256,3.256,0,0,1-.8,1.272,6.828,6.828,0,0,0-.856,1.164,7.418,7.418,0,0,1-.444-1.018c-.107.054-.682.373-.682.373l-1.332-4.638.027-.309a.828.828,0,0,0,.146-.417c-.2-.065-.227-.119-.493-.373a3.311,3.311,0,0,0-.925-.774.588.588,0,0,0-.471-.346c-.325-.065-.519-.119-.519-.119a.566.566,0,0,0,.254-.2,3.352,3.352,0,0,1-.8.081,3.357,3.357,0,0,0-.736.011c-.243.038-.535.146-.644-.227-.119-.092-.374-.011-.59.308s-.292.574-.709.7a1.453,1.453,0,0,1-.189.52,5.963,5.963,0,0,1-.563.7c-.4.471-.336,1.245-.974,1.835s.107-1.635.107-1.635l1.028-2.462,2.928-2.863,4.546-.308.444,2.355,2.219.763,1.4,2.138h0Z" transform="translate(-765.636 -389.969)" fill="#d3ae4d" fill-rule="evenodd"/>
      <path id="Path_39" data-name="Path 39" d="M1014.82,408.534l-1.911-2.755-1.337-1.029s-.953-1.753-1.018-1.807a12.59,12.59,0,0,0-1.526-.173l.107.265a.7.7,0,0,1,.321.217,1,1,0,0,1-.162,1.434.925.925,0,0,0,.519.081,2.529,2.529,0,0,0-.682,1.191.453.453,0,0,0,.2.471,1.8,1.8,0,0,0-.362,1.07,4.343,4.343,0,0,1,.535-.509,13.888,13.888,0,0,1,1.326-.909.765.765,0,0,0,.038.281s.7-.574,1.284-.319c.265.119.146.493.146.493a.619.619,0,0,1,.617.119,11.463,11.463,0,0,1,.8,1.164,8.582,8.582,0,0,1,.508.7,8.822,8.822,0,0,1,.736,1.553c.011-.217.054-.519.428-.519l-.568-1.018Z" transform="translate(-977.131 -390.085)" fill="#caa13e" fill-rule="evenodd"/>
      <path id="Path_40" data-name="Path 40" d="M368.526,624.971a1.865,1.865,0,0,1,0-.99,9.966,9.966,0,0,0,.417-1.927,6.869,6.869,0,0,1,.7-2.165l1.737-.79,1.229.335.362,1.646-1.553.856a1.192,1.192,0,0,1-.519.655c-.438.292-1.045.519-1.191.817a2.383,2.383,0,0,0-.189.574.814.814,0,0,0-.709.2,1.039,1.039,0,0,0-.281.79Z" transform="translate(-356.792 -599.541)" fill="#f4efc8" fill-rule="evenodd"/>
      <path id="Path_41" data-name="Path 41" d="M341.758,501.467a.791.791,0,0,0-.254.321,6.519,6.519,0,0,1-.374-2.127c-.011-.925-.066-1.155.148-1.474s1.054-.655.934-1.229a.9.9,0,0,0-1.229-.617c-.428.107-.747,1.018-1.191,1.472-.336.346-.736.292-.844.482-.146.254-.011.509-.054.671a3.24,3.24,0,0,1-.39.7,6.988,6.988,0,0,0-1.434,2.609,4.463,4.463,0,0,1,.146-1.082l-.081-.135.535-1.754.346-1.445.774-2.42,1.364-2.473,1.326-1.483,1.38.092.162,2.073.79,3.892,1.662,2.046-2.663,1.792-1.055.092h0Z" transform="translate(-326.481 -476.129)" fill="#ebcc73" fill-rule="evenodd"/>
      <path id="Path_42" data-name="Path 42" d="M462.4,705.388a.673.673,0,0,1-.309.011c-.081-.043-.162-.092-.135-.146s.173-.146.173-.189A.152.152,0,0,0,462,704.9a.147.147,0,0,0-.162.065.613.613,0,0,0-.216-.107,1.478,1.478,0,0,1,.173-.011,1.691,1.691,0,0,0-.471-.135c.135-.081.4-.319.574-.319s.282-.027.254-.119a.551.551,0,0,0-.308-.281c.054-.065.092-.162-.038-.428a.514.514,0,0,1-.038-.508,3.454,3.454,0,0,1,.238-.319.871.871,0,0,1,.227-.281,2.863,2.863,0,0,1,.4-.173c.189-.065.346-.146.455-.065a.148.148,0,0,1,.065.189.977.977,0,0,1,.709.038,5.367,5.367,0,0,0,1.153.265l.293.59-1.938,1.662-.8.4-.162.027h0Z" transform="translate(-446.689 -679.881)" fill="#e5c66b" fill-rule="evenodd"/>
      <path id="Path_43" data-name="Path 43" d="M494.784,609.225a7.476,7.476,0,0,0-.736.547c.081.011.216.065.162.146a8.753,8.753,0,0,0-.671.628,4.143,4.143,0,0,0-.52.763,2.743,2.743,0,0,1-.909.628c.444,0,1.337-.547,1.672-.547a.33.33,0,0,0,.281.363,2.1,2.1,0,0,0,1.472-.335c.736-.444.493-.774.8-.99.59-.39.828-.736,1.153-.953a2.108,2.108,0,0,1,.493-.265s.011-.162.107-.146a.146.146,0,0,1,.119.092,3.32,3.32,0,0,1,1.284-.509.074.074,0,0,1-.038-.038s.054-.027.065-.054c0,0,.038-.054.065-.027s.065.227.119.309c.119-.054.346-.563.346-.563l.547-1.564V605.28l-.428.081-3.211,1.364-1.949,2.019-.227.482Z" transform="translate(-476.653 -586.19)" fill="#e6bd62" fill-rule="evenodd"/>
      <path id="Path_44" data-name="Path 44" d="M708.715,487.771a1.815,1.815,0,0,0,.494-.2,2.234,2.234,0,0,1-.346.774,6.55,6.55,0,0,0-.519.9c-.227.444-.254,1.083-.471,1.364a.991.991,0,0,1,.308-.092,1.429,1.429,0,0,0-.308.39,1.849,1.849,0,0,1-.655.872,5.208,5.208,0,0,0-1.456,1.018c-.547.59-1.11,1.337-1.391,1.605a4.01,4.01,0,0,0,.4-1.1c.054-.335-.011-.736.081-1.18a3.855,3.855,0,0,1,.535-1.537,26.325,26.325,0,0,0,1.2-3.464l1.634-.52.493,1.169h0Z" transform="translate(-682.069 -471.291)" fill="#b6933f" fill-rule="evenodd"/>
      <path id="Path_45" data-name="Path 45" d="M772.648,401.149a4.557,4.557,0,0,0-.628,1.337c-.135.628-.011.574-.092.882a1.15,1.15,0,0,0,0,.574,2.037,2.037,0,0,1,.681-.671,5.585,5.585,0,0,0,1.07-.72,3.944,3.944,0,0,1,.909-.99c-.2-.027-.482-.119-.535-.107a12.108,12.108,0,0,1,1.407-.99A5.426,5.426,0,0,1,777,399.434a6.641,6.641,0,0,1-.736,0c.107-.227.482-.336.856-.709s-.238-.925-.238-.925l-2.854,1.726-1.38,1.624Z" transform="translate(-747.479 -385.24)" fill="#c49937" fill-rule="evenodd"/>
      <path id="Path_46" data-name="Path 46" d="M576,163.418l.065-.519.818-1.31.855-2.3v-3.145l-.065-1.819.135-1.191.1-.379.108-.146.7.362.964,1.31.092,2.528-.937,3.989-2.674,2.917Z" transform="translate(-557.725 -147.165)" fill="#dfc068" fill-rule="evenodd"/>
      <path id="Path_47" data-name="Path 47" d="M346.41,148.147s-.428.011-.52,1.792-.136,2.717-.2,3.6a19.336,19.336,0,0,1-.292,1.938,5.33,5.33,0,0,1-.362,1.662,3.821,3.821,0,0,1-.872,1.3,5.372,5.372,0,0,1-1.634.909,8.438,8.438,0,0,0-1.938.444,2.946,2.946,0,0,0-.8.509,10.221,10.221,0,0,0-2.154,2.917c-.963,1.9-1.927,7.263-1.927,7.263l.217-.363a3.438,3.438,0,0,1,.509-1.326c.471-.844.336-1.791.99-3.41a18.572,18.572,0,0,1,.963-2.1,7.8,7.8,0,0,1,2.116-2.582,6.69,6.69,0,0,1,2.582-1.028l1.456-.963s.254-.492.59-1.055a6.835,6.835,0,0,0,1.2-2.955c.2-1.9-.281-3.145-.254-4.27s.038-1.954.265-2.154.065-.125.065-.125h0Z" transform="translate(-325.223 -142.849)" fill="#a88f33" fill-rule="evenodd"/>
      <path id="Path_48" data-name="Path 48" d="M631.628,154.763a20.668,20.668,0,0,0,.936-2.982c.054-.282.162-.563.19-.79a7.143,7.143,0,0,0,0-2.6,4.639,4.639,0,0,0-.926-1.391c-.265-.39-.39-.535-.335-.617a.6.6,0,0,1,.471-.2,1.612,1.612,0,0,1,1.153.535,6.98,6.98,0,0,1,.747,2.116l.347,2.157.882,2.717-3.464,1.056h0Z" transform="translate(-611.439 -140.967)" fill="#c99e3d" fill-rule="evenodd"/>
      <path id="Path_49" data-name="Path 49" d="M666.8,159.75a.55.55,0,0,1-.335,0,.483.483,0,0,1-.216.455,18.282,18.282,0,0,0-2.355.092,1.808,1.808,0,0,1-1.3-1.483c-.216-.872.162-2.073.038-2.863a17.523,17.523,0,0,0-.482-1.754c-.027-.362-.054-.455-.054-.682a1.254,1.254,0,0,0-.308-.065c-.027-.107.027-.2-.092-.39a2.154,2.154,0,0,1,1.028.574,1.934,1.934,0,0,1,.493.628,5.03,5.03,0,0,1,1.018,1.2c.281.559.828,2.343.953,2.636a1.938,1.938,0,0,0,.321.509c.314.39.774,1.035,1.293,1.142h0Z" transform="translate(-640.762 -147.599)" fill="#b58634" fill-rule="evenodd"/>
      <path id="Path_50" data-name="Path 50" d="M706.47,187.5a15.015,15.015,0,0,1,.882,1.645,7.463,7.463,0,0,0,.909,1.791c-.217-.628-.6-1.862-.828-2.3a5.277,5.277,0,0,0-.963-1.136h0Z" transform="translate(-683.97 -180.81)" fill="#a88f33" fill-rule="evenodd"/>
      <path id="Path_51" data-name="Path 51" d="M453.387,436.89a7.91,7.91,0,0,0-1.564.671c-.336.173-.655.319-.963.455a16.811,16.811,0,0,1-2.344.882c.054.065.081.092.081.092a.682.682,0,0,0,.146.417c-.081.081-1.164.817-.844,3.28.216-.081.471-.189.508-.189.065.011.081.189.162.189a1.086,1.086,0,0,0,.628-.471,3.654,3.654,0,0,0,.7,2.609c.162-.189.574-.817.574-.817l.011-.2a5.435,5.435,0,0,1,.265-1.337,3.555,3.555,0,0,1,.671-1.11l2.316-3.307-.346-1.163h0Z" transform="translate(-433.692 -423.15)" fill="#e6c367" fill-rule="evenodd"/>
      <path id="Path_52" data-name="Path 52" d="M532.481,363.337a1.281,1.281,0,0,1-.346.173,1.339,1.339,0,0,1,.227-1.055,14.13,14.13,0,0,0,1.418-1.82,3.946,3.946,0,0,1,1.38-2.436c1.3-1.164,1.807-1.564,1.807-1.564l2.1-1.055,2.582,1.018-1.283,5.027-1,2.355-3.96-.747-2.93.1h0Z" transform="translate(-515.434 -344.409)" fill="#dcba5a" fill-rule="evenodd"/>
      <path id="Path_53" data-name="Path 53" d="M585,440.443l.493-.617v-.439a2.8,2.8,0,0,0,1.136-.747c.59-.6,1.407-1.754,2.127-1.683s.79,1.564.817,1.981a11.383,11.383,0,0,0,.265,1.873c.162.509-1.754,2.435-1.754,2.435l-1.3.99L585,440.443Z" transform="translate(-566.478 -423.191)" fill="#e9ce77" fill-rule="evenodd"/>
      <path id="Path_54" data-name="Path 54" d="M627.729,533.733s.4-.628.107-.763a4.631,4.631,0,0,1,.492-.8,4.044,4.044,0,0,1,.963-1.255,4.189,4.189,0,0,0,1.31-1.618,4.262,4.262,0,0,0,.119-.926,1.757,1.757,0,0,0,.254.173,1.512,1.512,0,0,1,.6,1.456,2.39,2.39,0,0,1-.428,1.326,6.369,6.369,0,0,1-.573.509c-.255.173-.346.373-.774.39a.513.513,0,0,1,.146-.081,1,1,0,0,0-.682.162c-.238.216-.745.882-1,1.083-.254.162-.535.346-.535.346h0Z" transform="translate(-607.816 -511.659)" fill="#cdae50" fill-rule="evenodd"/>
      <path id="Path_55" data-name="Path 55" d="M696.054,343.82a6.517,6.517,0,0,0-1.992-.39c-1.137-.038-2.8.027-4.427.038-1.754.011-3.345-.6-5.553-.709-.362-.217-1.284-1.164-4.162.844.173-.011,2.089-.444,2.755.39a3.348,3.348,0,0,1,.39,2.571c-.173.747-.736,1.835-.963,2.6s-.173,1.164-.336,1.7-.519.8-.309,1.418c.281-.173.428-.173.9-1.228s.374-1.808,1.153-2.7a17.589,17.589,0,0,1,2.517-2.436,9.38,9.38,0,0,1,8.335-.4c.969-.1,1.694-1.694,1.694-1.694h0Z" transform="translate(-659 -331.63)" fill="#d2a83e" fill-rule="evenodd"/>
      <path id="Path_56" data-name="Path 56" d="M591.387,350.424a.5.5,0,0,0-.027-.119.863.863,0,0,0-.146-.217,6.945,6.945,0,0,0-1.434-.119c-.844.092-1.608,1.137-1.965,1.673a9.884,9.884,0,0,1-1.283,1.791.179.179,0,0,0-.027-.119s.027.038-.027.092-.054.081-.027.107l.081.081a6.633,6.633,0,0,0,1.791-1.284,9.027,9.027,0,0,1,2.344-1.673,3.3,3.3,0,0,1,.72-.213h0Z" transform="translate(-567.871 -338.852)" fill="#c29637" fill-rule="evenodd"/>
      <path id="Path_57" data-name="Path 57" d="M1085.04,248.94s-.173.216-.39.455c-.482.509-1.11,1.082-1.646,1.672-.508.563-1.082,1-1.726,1.738s-1.391,1.553-1.581,1.791a1.764,1.764,0,0,0-.308.828c-.092-.065-.2-.135-.2-.135a1.351,1.351,0,0,0,.162.238c.135.189.346.428.454.574a1.746,1.746,0,0,1,.281.617c.065.011.482.092,1-.763s1.2-1.791,1.2-1.791l1.083-1.608.682-1.364.856-1.526.13-.725h0Z" transform="translate(-1045.094 -240.058)" fill="#ac8132" fill-rule="evenodd"/>
      <path id="Path_58" data-name="Path 58" d="M1226.555,218.3a8.264,8.264,0,0,0-.909.856c-.254.321-.856,1.164-.856,1.164l.217-.027,1.1-.974.428-.763.022-.254Z" transform="translate(-1185.78 -210.511)" fill="#a88f33" fill-rule="evenodd"/>
      <path id="Path_59" data-name="Path 59" d="M1268.583,1155.383a1.131,1.131,0,0,1,.239-.709,5.151,5.151,0,0,0,1.526-2.116,13.9,13.9,0,0,0,.7-1.791,7.853,7.853,0,0,1-1.82,1.19c.162-.336.254-.574.336-.747-.092-.081-.481-.173-.519-.216.216-.217.336-.747.774-1.1.563-.428,1.591-1.164,2.391-1.82a15.943,15.943,0,0,0,2.571-2.625.975.975,0,0,1,.146.281s-.79,1.029-1.2,1.683a1.6,1.6,0,0,0-.336.882l.747-.321s.216.8-.763,2.019c.428-.162.6-.065.844-.2a3.794,3.794,0,0,0-1.472,1.553,6.683,6.683,0,0,1-2.37,2.755,19.629,19.629,0,0,0-1.792,1.277h0Z" transform="translate(-1228.543 -1109.595)" fill="#a67a2e" fill-rule="evenodd"/>
      <path id="Path_60" data-name="Path 60" d="M1130.109,298.2a5.967,5.967,0,0,0-.509,1.645c-.011.173-.054.309-.054.509a6.225,6.225,0,0,1-.107,1.7.9.9,0,0,0-.136-.281c-.081.227-.227.936-.346,1.2a5.646,5.646,0,0,1-.162-1.483c.011-.709.027-.844.027-.99a4.34,4.34,0,0,1-.227.682c-.081-.146-.173-.335-.282-.492a3.078,3.078,0,0,1-.216.346c-.011-.065-.038-.238-.054-.482a6.8,6.8,0,0,1-.011-.72,3.257,3.257,0,0,1,.736-1.245,10.4,10.4,0,0,0,1.337-2.208c.173-.374.909-1.927.909-1.927h.563l-.817,1.862s-.492,1.018-.747,1.391-.79,1.445-1.029,1.862c.173-.227.319-.346.493-.563a8.893,8.893,0,0,0,.633-.806h0Z" transform="translate(-1092.219 -285.211)" fill="#8c6228" fill-rule="evenodd"/>
      <path id="Path_61" data-name="Path 61" d="M1204.821,216.32a2.33,2.33,0,0,1-.428.774c-.336.4-1.056.936-1.407,1.364a3.687,3.687,0,0,0-.672,2.9,4.86,4.86,0,0,1,.844-1.526,11.713,11.713,0,0,0,1.391-1.992,3.354,3.354,0,0,0,.319-1.055l.107-.135-.065-.309-.092-.022Z" transform="translate(-1164.018 -208.602)" fill="#cba94c" fill-rule="evenodd"/>
      <path id="Path_62" data-name="Path 62" d="M1399.464,529.885a5.912,5.912,0,0,1-.281-1.126c-.065-.536.107-.642-.092-1.255-.119-.374-.335-.321-.39-.374a3.187,3.187,0,0,1-.081-.925,3.47,3.47,0,0,0-.065-.882c-.081-.065-.135-.119-.254-.519a5.744,5.744,0,0,0-.265-.72c-.065-.119-.255-.227-.255-.346,0-.238.217-.362.217-.428-.011-.135-.173-.027-.217-.065-.054-.065.135-.455.065-.509-.027-.027-.217.2-.265.136s-.119-.709-.217-1.137-.189-.72-.2-.844-.747-2.219-.925-2.728a12.841,12.841,0,0,1-.362-1.31,6.759,6.759,0,0,0-.119-.72c-.027.054-.011.319-.054.309s-.173-.936-.216-1.083a7.5,7.5,0,0,1-.321-1c-.054-.363-.173-1.31-.254-1.954s-.119-.909-.119-1.07a6.658,6.658,0,0,0-.065-1.18,11,11,0,0,0-.509-1.992c-.362-.909-1.326-3.237-1.5-3.816,0-.146.189-.065.189-.065s.47,1.18.817,2.089a14,14,0,0,0,.736,1.792,6.732,6.732,0,0,1,.8,2.435c.227,1.461.308,2.809.444,3.707a9.649,9.649,0,0,0,.255,1.337c.146.493.373,1,.671,1.781a11.752,11.752,0,0,1,.547,1.673c.119.6.119,1.055.19,1.353.065.254.162.763.39,1.5s.563,1.683.79,2.273a12.578,12.578,0,0,1,.709,2.69,25.888,25.888,0,0,1,.205,2.977h0Z" transform="translate(-1348.802 -489.311)" fill="#a88f33" fill-rule="evenodd"/>
      <path id="Path_63" data-name="Path 63" d="M1250.721,213.054l-.027.065a.114.114,0,0,1,.065.136,3.231,3.231,0,0,1-.027.444c-.027.189-.081.335-.092.455a2.279,2.279,0,0,1-.321,1.272c-.107.2-.173.373-.227.492a1.46,1.46,0,0,1-.281.471c.189-.107.872-.535,1.218-.471a2.542,2.542,0,0,0-.828.747,1.862,1.862,0,0,0,.642,0,8.93,8.93,0,0,1,1.862-.265c.644.038.39-.774.39-.774l-.744-1.634-1.407-.99-.222.054Z" transform="translate(-1210.122 -205.401)" fill="#be9c44" fill-rule="evenodd"/>
      <path id="Path_64" data-name="Path 64" d="M1279.152,201.889a5.007,5.007,0,0,1-.882-2.783,50.1,50.1,0,0,1-.2-5.352l-.509-1.245a2.9,2.9,0,0,0-.374-1.136c-.266-.308-.79-.828-1.028-1.082s-.509-.6-.671-.655a1.855,1.855,0,0,1,1.834-.909,1.945,1.945,0,0,1,1.965,1.045,10.222,10.222,0,0,1,1.044,3.818,13.089,13.089,0,0,1-.228,5.861,5.966,5.966,0,0,1-.953,2.441Z" transform="translate(-1235.124 -181.993)" fill="#a17c34" fill-rule="evenodd"/>
      <path id="Path_65" data-name="Path 65" d="M1316.756,588.752a1.063,1.063,0,0,0,.6-.136,1.69,1.69,0,0,0,1.483-.628,1.265,1.265,0,0,1-.119.99,2.273,2.273,0,0,1,.363-.227,3.413,3.413,0,0,1-.6,2.316.945.945,0,0,1,.7-.254,2.754,2.754,0,0,1-.238,1.738.705.705,0,0,1-.7.238,1.358,1.358,0,0,0,0-.227c-.011-.146-.065-.292-.027-.39a1.938,1.938,0,0,1-.563-.39,3.51,3.51,0,0,1-1.126-1.764.7.7,0,0,1,.509-.763.6.6,0,0,1-.119-.146.82.82,0,0,0-.162-.357Z" transform="translate(-1274.667 -569.372)" fill="#8c6228" fill-rule="evenodd"/>
      <path id="Path_66" data-name="Path 66" d="M1201.322,298.993s-.027-.038-.173.135c.027-.173.054-.336.065-.493a1.693,1.693,0,0,1,.265-.4c-.081.162-.135.308-.135.308a2.178,2.178,0,0,1,.493-.6c.2-.162.455-.238.563-.39a1,1,0,0,0,.119-.217,3.362,3.362,0,0,0,.671-.682c.054-.065.135-.135.19-.2.092-.038.308-.135.563-.265.265-.146.563-.346.747-.428.363-.162.747-.146.925-.4.135-.038.281-.444.254-.79a3.277,3.277,0,0,1,1.581,2.116,7.671,7.671,0,0,1-.39,3.253,4.98,4.98,0,0,1-.482,1.618c-.336.444-1.418,1.07-1.683,1.38-.227.254-.909.9-.882,1.364.027.346.454.535.547.6s.092.146.265.107.238-.119.309-.119.081.027.119.027a.393.393,0,0,0,.081-.011s-.027.493-1.18.642c-.081.011-.162.038-.265.054a.661.661,0,0,0,.363-.265c-.162-.027-.628-.054-.747-.092a1.433,1.433,0,0,1,.265-.319c.092-.081-.011-.107-.092-.065a4.339,4.339,0,0,0-.4.308,3.886,3.886,0,0,1-.471.428,1.055,1.055,0,0,1,.2-.925c-.065.011-.19.2-.309.162a1.723,1.723,0,0,1,.038-.59,2.705,2.705,0,0,1,.417-.671l1.7-3.037.363-2.3-3.891.756h0Z" transform="translate(-1163.242 -285.375)" fill="#92723a" fill-rule="evenodd"/>
      <path id="Path_67" data-name="Path 67" d="M1165.685,410.01s-.092.065.092.189a2.075,2.075,0,0,1-.173.265c-.092.107-.19.173-.227.265a1.47,1.47,0,0,0-.146.4,1.971,1.971,0,0,1-.255.936,4.008,4.008,0,0,0-.238.455,3.371,3.371,0,0,0-.282.535,5.61,5.61,0,0,0-.092.709l.162-.2a1.527,1.527,0,0,1-.238.39c.065-.054.254-.189.574-.471a14.24,14.24,0,0,1,1.981-1.5,2.9,2.9,0,0,1-.644.119c.135-.135,1.353-1.564,1.991-1.7a.255.255,0,0,0,.054-.173l-.547-.054-1.11.238-.162-.856-.742.449Z" transform="translate(-1127.362 -396.581)" fill="#b18e3e" fill-rule="evenodd"/>
      <path id="Path_68" data-name="Path 68" d="M1199.756,390.474a1.5,1.5,0,0,0-.281.509,1.708,1.708,0,0,1-.266-.363.932.932,0,0,0-1.228-.519,2.252,2.252,0,0,1,0-.509,2.8,2.8,0,0,0,.844-.747,3.455,3.455,0,0,0,.655-1.055c.107-.081.292-.217.535-.374.347-.238.763-.563.828-.926a2.213,2.213,0,0,1-1.029.2c.2-.092.509-.189.471-.59.081-.054.146-.092.146-.092a.535.535,0,0,0-.189-.027c-.011-.038-.027-.092-.119-.065s-.107.027-.119.065a.575.575,0,0,0-.254.065,3.913,3.913,0,0,1-.444.319c.038-.065.092-.162.092-.162a1.879,1.879,0,0,0-.455.107,9.443,9.443,0,0,0-1.153.547c.038-.065.054-.107.081-.119s.092-.027.092-.038a.393.393,0,0,1-.011-.146,4.969,4.969,0,0,1,.428-.736,1.435,1.435,0,0,0,.227-.617l.828-.417,2.327-.535,1.51.092-.19,1.045-.892,1.824-.763,1.662-.871,1.018-.8.584h0Z" transform="translate(-1159.918 -372.133)" fill="#543e26" fill-rule="evenodd"/>
      <path id="Path_69" data-name="Path 69" d="M1207.875,357.574a13.542,13.542,0,0,1-1.164,1.3c.162-.346,1.164-2.409,1.526-2.982-.081-.065-.19-.065.065-1.07-.216.508-.292.774-.471.909a.335.335,0,0,1-.321.092.227.227,0,0,0,.027-.135s-.763-.092-1.284-.092a7.67,7.67,0,0,0-2.127.509,8.707,8.707,0,0,0-.871.308c-.162.135-.254.281-.336.319-.065.038-.373.135-.444.238s-.173.227-.173.254-.027.065.054.038c.027-.011.227-.119.455-.254.308-.173.682-.373.953-.492a4.412,4.412,0,0,1,1.364-.319,8.5,8.5,0,0,1,1.228-.217,10.315,10.315,0,0,1,1.153.027c-.065.054-.119.119-.092.346a1.686,1.686,0,0,1-.107.292c-.162.444-.471,1.18-.642,1.553-.238.508-.509.936-.642,1.2a8.729,8.729,0,0,1-.72,1.337c-.291.374-.444.6-.535.682s-.747.563-.7.736a3.616,3.616,0,0,0,1.418-.936,11.36,11.36,0,0,1,1.083-1.326,3.618,3.618,0,0,0,.963-1.364,5.987,5.987,0,0,1,.341-.953h0Z" transform="translate(-1164.325 -343.646)" fill="#806031" fill-rule="evenodd"/>
      <path id="Path_70" data-name="Path 70" d="M777.281,664.838a1.7,1.7,0,0,1-.39.736c-.265.238-.736.444-.79.844s.471.6.471.6a2.082,2.082,0,0,0-.293.844,5.6,5.6,0,0,0,.027.8.357.357,0,0,0-.107.107.882.882,0,0,0,.292.563c.265.216.492.346.628.292a1.314,1.314,0,0,1,.054.136s.2-.509.336-.953.254-.39.308-1a5.865,5.865,0,0,1,.642-1.662l.4-.9-.655-.509-.926.1Z" transform="translate(-751.424 -643.702)" fill="#b6903c" fill-rule="evenodd"/>
      <path id="Path_71" data-name="Path 71" d="M807.306,692.2a3.934,3.934,0,0,0-.373.444,1.3,1.3,0,0,1-.563.547c-.254.092-.417.092-.4.346s.255.362.39.492a.633.633,0,0,1,.2.617.619.619,0,0,0,.363-.374c.135-.292,1.081-2.073,1.081-2.073h-.7Z" transform="translate(-780.311 -670.181)" fill="#685026" fill-rule="evenodd"/>
      <path id="Path_72" data-name="Path 72" d="M807.957,540.51a.534.534,0,0,0,0-.373c-.081-.162-.574-.217-.817-.4a.968.968,0,0,0-.817-.238c.038-.092.189-.293.065-.336a1.47,1.47,0,0,0-.682.254c-.119.092-.39.2-.444.265s-.146.189-.2.135c-.054-.038-.081-.135-.173-.081a2.2,2.2,0,0,0-.617.628,3.213,3.213,0,0,1-.817,1.218c-.552.536-.79.882-.628,1.083s.238.054.266.227a1.458,1.458,0,0,1-.027.509c-.065.282-.173.547-.027.6.374.119.736-.107.817-.038.162.146-.092.671.292.774a1.194,1.194,0,0,0,.774-.092l1.418-.763,1.364-.72.7-1.38-.374-1.153-.071-.119Z" transform="translate(-777.401 -522.115)" fill="#d4b968" fill-rule="evenodd"/>
      <path id="Path_73" data-name="Path 73" d="M908.026,555.6a.568.568,0,0,1,.054-.682c.293-.32.709-.455.871-.655a.25.25,0,0,0-.119-.081,1.077,1.077,0,0,1,.471-.444.451.451,0,0,0-.308-.146c-.266,0-.428.162-.672.162s-.265-.119-.265-.119.4-.038.362-.217-.107-.189-.107-.189a4.064,4.064,0,0,0,.909-.492.99.99,0,0,0,.146-.454c.092,0,.628-.282.844-.162s.065.444.065.444a5.335,5.335,0,0,0,.989-.976c.292.027.428-.2.642-.2.266,0,.682.362.763,1.136a4.862,4.862,0,0,1,.054,1.483,6.843,6.843,0,0,0,.107,1.862c.092.374.308.336.308.336a.6.6,0,0,1-.189.292.9.9,0,0,0-.146.628,2.685,2.685,0,0,0,.081.292,1.355,1.355,0,0,0-.217.336.38.38,0,0,1-.346.227,1.681,1.681,0,0,0-.238,0c-.173.011-.227.038-.336,0s-.189-.081-.146-.428-1.337-1.153-1.337-1.153l-2.248-.8h0Z" transform="translate(-879.211 -533.997)" fill="#cca849" fill-rule="evenodd"/>
      <path id="Path_74" data-name="Path 74" d="M838.092,707.982s.492.655,2.517.655a5.1,5.1,0,0,0,1.5-.146,4.09,4.09,0,0,0,1.846-1.337c.736-.871.574-1.228.574-1.228l-.428-.065-1.392.189-4.117,1.754-.5.178Z" transform="translate(-811.645 -683.421)" fill="#585136" fill-rule="evenodd"/>
      <path id="Path_75" data-name="Path 75" d="M833.063,673.457s-1.754.39-1.754-.72a3.859,3.859,0,0,1,1.353-2.419,5.086,5.086,0,0,1,.953-.428h1.618l.308.817-.135,1.764-2.344.985Z" transform="translate(-804.958 -648.629)" fill="#252211" fill-rule="evenodd"/>
      <path id="Path_76" data-name="Path 76" d="M857.751,676.18s-.335-.309-1.1.107a2.749,2.749,0,0,0-1.418,2.073c-.038.7.574,1.218,1.526,1.245a4.85,4.85,0,0,0,1.353-.107c-.054-.065-.336-.417-.336-.417l-.027-2.9h0Z" transform="translate(-828.051 -654.61)" fill="#c3b378" fill-rule="evenodd"/>
      <path id="Path_77" data-name="Path 77" d="M866.194,683.561s-.081-.065-.321.065a5.26,5.26,0,0,0-.72.59,2.926,2.926,0,0,0-.321.265c-.336.4-.617,1.056-.455,1.38s.7.7,2.062.444l-.25-2.744h0Z" transform="translate(-836.819 -661.818)" fill="#e6d89c" fill-rule="evenodd"/>
      <path id="Path_78" data-name="Path 78" d="M870.041,660.552a1.724,1.724,0,0,0-.217.872,1.435,1.435,0,0,0,1.445,1.483c.871.054,1.456-1.256,2.089-1.764a1.518,1.518,0,0,1,.774-.4,7.183,7.183,0,0,0-1.807-1.228c-1.3-.7-2.755-.79-3.545.281.374-.027,1.581-.336,1.581-.336l.59.189-.909.9h0Z" transform="translate(-841.302 -638.086)" fill="#252211" fill-rule="evenodd"/>
      <path id="Path_79" data-name="Path 79" d="M943.946,695.042c-.038-.081-.065-.189.092-.216s.227-.011.281.107.107.217.027.265a.375.375,0,0,1-.4-.157Zm-.254-.763s-.054.038-.027-.038c.011-.092.081-.254.254-.216s.135.227.107.281a.281.281,0,0,1-.282.107.09.09,0,0,1-.054-.135Z" transform="translate(-913.545 -671.892)" fill="#6f674d" fill-rule="evenodd"/>
      <path id="Path_80" data-name="Path 80" d="M534,663.748a1.673,1.673,0,0,0,.925.309,2.509,2.509,0,0,0,1.418-.845c.173-.189.321-.39.482-.547a2.864,2.864,0,0,0,.292-.292c.092-.107.189-.308.238-.374a4.955,4.955,0,0,1-.471.363,5.58,5.58,0,0,1-.7.363c-.146.054-1.662.856-1.662.856l-.525.167Z" transform="translate(-517.043 -640.927)" fill="#ac924c" fill-rule="evenodd"/>
      <path id="Path_81" data-name="Path 81" d="M552.34,586.615a2.181,2.181,0,0,1,.7-.265,13.024,13.024,0,0,1,1.337-.189l.736.321.292,1.11-.535,1.153-.682.428-.774-1.245-1.07-1.31h0Z" transform="translate(-534.791 -567.534)" fill="#9f8e57" fill-rule="evenodd"/>
      <path id="Path_82" data-name="Path 82" d="M518.454,533.655l-.255.19a1.655,1.655,0,0,0,.119-.482,4.46,4.46,0,0,1,.747-1.754,5.555,5.555,0,0,1,.4-.482.271.271,0,0,0-.217.054,2.59,2.59,0,0,1,.747-.762c.346-.214.482-.282.844-.107s.455.265.72.254a.813.813,0,0,0,.492-.292s.054.173-.146.574a8.072,8.072,0,0,1-.99,1.218l-1.645,1.126-.817.464h0Z" transform="translate(-501.761 -513.386)" fill="#eac970" fill-rule="evenodd"/>
      <path id="Path_83" data-name="Path 83" d="M559.421,533.831s1.191.162,1.553-.173c.011.038.054.038.054.065a.1.1,0,0,1-.027.054.864.864,0,0,1,.119-.011.706.706,0,0,0,.146.027.839.839,0,0,0,.119-.011.2.2,0,0,1-.081.136c.054,0,.107.011.107.054s.011.173-.054.2a.246.246,0,0,1-.162-.011.668.668,0,0,0,.081.293.611.611,0,0,0,.642.362s.162.39-.52,1.255c-.092.119-.189.281-.308.417a1.582,1.582,0,0,0-.107.319,2.707,2.707,0,0,0,1.483-1.456,7.645,7.645,0,0,0,.336-2.955,1.523,1.523,0,0,0-.119-.59.511.511,0,0,0-.8-.092,9.776,9.776,0,0,1-1.326,1.38,4.519,4.519,0,0,1-1.137.736h0Z" transform="translate(-541.658 -514.747)" fill="#d7bc6b" fill-rule="evenodd"/>
      <path id="Path_84" data-name="Path 84" d="M509.149,634.17a1,1,0,0,0-.346.642,2.1,2.1,0,0,0,.238,1.353,1.365,1.365,0,0,0,1.045.774,1.145,1.145,0,0,0,.444-.092,2.8,2.8,0,0,0,.6-.374c.265-.2.482-.373.455-.39-.065-.027-1.634-1.326-1.634-1.326l-.59-.659-.211.071Z" transform="translate(-492.596 -613.944)" fill="#585136" fill-rule="evenodd"/>
      <path id="Path_85" data-name="Path 85" d="M544.76,654.473a1.371,1.371,0,0,0,.509-.146c.189-.119-1.11-1.407-1.11-1.407l.092,1.392Z" transform="translate(-526.808 -632.117)" fill="#453a25" fill-rule="evenodd"/>
      <path id="Path_86" data-name="Path 86" d="M517.767,613.725a1.876,1.876,0,0,0-.162.39,6.819,6.819,0,0,0,.119,1.364.988.988,0,0,0,.872.709,1.234,1.234,0,0,0,.671-.216c0-.054-.4-.107-.509-.309a1.819,1.819,0,0,1-.107-.642c-.011-.173-.011-.362.054-.428a1.392,1.392,0,0,0,.173-.628L519.4,613h-.683l-.817.509Z" transform="translate(-501.115 -593.528)" fill="#84754b" fill-rule="evenodd"/>
      <path id="Path_87" data-name="Path 87" d="M516.69,597.63a2.966,2.966,0,0,1,1.018-.872,1.044,1.044,0,0,1,.7-.065l-.282.72-.4.444.027.227a1.387,1.387,0,0,0,.335,1.018,1.049,1.049,0,0,0,.872.4,1.135,1.135,0,0,0,.925-.747,2.1,2.1,0,0,0-.038-2.008,1.636,1.636,0,0,0-1.38-.748,1.931,1.931,0,0,0-1.775,1.629h0Z" transform="translate(-500.285 -577.08)" fill="#252211" fill-rule="evenodd"/>
      <path id="Path_88" data-name="Path 88" d="M899.548,675.958c-.2-.092-.011-.655.19-.828a1.41,1.41,0,0,1,.9-.4c.162-.011.319.092.292.2a1.608,1.608,0,0,1-.574.682C900,675.888,899.775,676.061,899.548,675.958Z" transform="translate(-870.799 -653.219)" fill="#f7f7e7" fill-rule="evenodd"/>
      <path id="Path_89" data-name="Path 89" d="M589.086,623.162a.386.386,0,0,1,.374.265c.038.173-.092.519-.374.519-.227,0-.346-.282-.346-.362a.414.414,0,0,1,.054-.189A.31.31,0,0,1,589.086,623.162Z" transform="translate(-569.953 -603.279)" fill="#f8f6de" fill-rule="evenodd"/>
      <path id="Path_90" data-name="Path 90" d="M520.973,626.67a1.257,1.257,0,0,0-.547.535,1.42,1.42,0,0,0-.107.856,2.1,2.1,0,0,0,.254.59.408.408,0,0,0,.309.189.547.547,0,0,0,.281-.4,2.854,2.854,0,0,1,.189-1.1c.157-.335-.379-.671-.379-.671h0Z" transform="translate(-503.703 -606.726)" fill="#d4c38b" fill-rule="evenodd"/>
      <path id="Path_91" data-name="Path 91" d="M536.743,614.49c-.065.038-.173.092-.146.162s.255.107.336.266a.567.567,0,0,1,.065.417.661.661,0,0,0,.189-.136c.119-.135.265-.319.39-.319.081,0,.162.038.238.038.119,0,.238-.038.254-.162.027-.162-.227-.309-.374-.281a.355.355,0,0,0-.054-.374c-.119-.108-.492.081-.574.136s-.325.254-.325.254h0Z" transform="translate(-519.493 -594.492)" fill="#e2d59d" fill-rule="evenodd"/>
      <path id="Path_92" data-name="Path 92" d="M686.189,938.237l.8-.237.227.162s.162.346.417.39c-.081.173-.293.321-.282.444a.375.375,0,0,0,.119.216,1.863,1.863,0,0,0,.7,2.39c-.336.135-.763.321-.99.428a1.749,1.749,0,0,1,.655.238c.146.131.146.173.281.254s.216.189.19.238c-.092-.054-.4-.216-.455-.065s-1.337.092-1.337.092l-2.165.417a.391.391,0,0,0-.146-.417c-.265-.238-.59.011-.936-.254-.454-.346-.471-.747-.617-.9a2.859,2.859,0,0,1,1.153-.321.477.477,0,0,1-.065-.363c.065-.189.335-.309.254-.535.119-.027.173-.027.471-.4.281-.374.455-.455.671-.482a.988.988,0,0,0,.747-.374c.281-.265.19-.492.19-.492s.184-.06.119-.433h0Z" transform="translate(-661.073 -908.325)" fill="#cbac5a" fill-rule="evenodd"/>
      <path id="Path_93" data-name="Path 93" d="M715.095,940.723c.011-.054.054-.081.346-.054s2.143-.173,2.647-.2a16.582,16.582,0,0,1,3.172.173c.872.184,1.754.4,2.181.509s.563.162.547.216a.157.157,0,0,1-.162.092c-.054-.011-1.472-.444-1.91-.535a17.278,17.278,0,0,0-2.783-.321,14.6,14.6,0,0,0-1.737.065,13.912,13.912,0,0,1-2.062.146c-.321-.038-.255-.038-.238-.092h0Z" transform="translate(-692.639 -910.459)" fill="#d6bc6f" fill-rule="evenodd"/>
      <path id="Path_94" data-name="Path 94" d="M462.028,1064.421a4.405,4.405,0,0,1,1.51,1.337.58.58,0,0,1-.173.817s.628,0,.547.346a5.217,5.217,0,0,1-1.781,1.109,2.884,2.884,0,0,1-1.028.346c-.336.054-1.256-.107-1.445.162a.528.528,0,0,0-.054.59,3.058,3.058,0,0,0,.493.092s-.092.254-1,.281-1.137.092-1.191.19.173.038.59.107,1,.107,1,.107a1.847,1.847,0,0,1-.682.292,11.331,11.331,0,0,0-1.71.444,1.579,1.579,0,0,0,.428.238,2.709,2.709,0,0,0-.6.217c.081.054.189.119.189.119a3.744,3.744,0,0,1-.72.682,5.889,5.889,0,0,1-2.317.709c-1.31-.346-1.472-1.781-1.791-1.889-.482-.162-.709.162-1.137-.065a2.675,2.675,0,0,1,.493-.308c-.217-.107-1.337-.817-1.337-.817a8.312,8.312,0,0,0-.39-.747c-.217-.374-.535-.871-.774-1.31a10.658,10.658,0,0,0-1.018-1.954c.081-.107.362-.092.362-.092l3.946,1.3,7,.2,1.82-2.6.774.092Z" transform="translate(-434.326 -1030.884)" fill="#dfc677" fill-rule="evenodd"/>
      <path id="Path_95" data-name="Path 95" d="M547.18,1122.211a.614.614,0,0,0,.146.119,2.13,2.13,0,0,1,.471.362c.054-.081.189-.227.428,0s.535.065.72.119.2.092.2.092a1.354,1.354,0,0,1,.346-.19c.146-.054.319-.092.509-.146a2.855,2.855,0,0,1,.493-.092c.119.081.547.535,2.262-.135,1.618-.628,1.992-.7,2.262-.6.027-.065.054-.19.471-.173a3.221,3.221,0,0,0-.346-.763l-1.911-.655h-1.045l-3.134.574-1.737.991-.135.5Z" transform="translate(-529.986 -1084.539)" fill="#c4a859" fill-rule="evenodd"/>
      <path id="Path_96" data-name="Path 96" d="M517.9,1078.7a1.013,1.013,0,0,0,.471.6,2.711,2.711,0,0,1,.563.493s.081-.107.146-.216.119-.254.227-.292c.217-.092.709.081.817.054.092-.027.065-.216.162-.216.227-.011.373.146.455.146s.281-.011.308-.054.038-.493.346-.709a.926.926,0,0,1,.856-.081c0,.081.011.281.227.292a1.1,1.1,0,0,1,.428.038c.19.065.417-.011.519.308.092-.027.309-.054.254-.362a1.575,1.575,0,0,0,.428-.455c.054-.081.146-.173.216-.292a.882.882,0,0,1,.72.227c-.092.065-.146.107-.173.173a1.941,1.941,0,0,1,.216.254c.081.107.136.238.238.265a8.892,8.892,0,0,0,1.018,0,2.052,2.052,0,0,1,.882.265c.054-.027.054-.038.19-.011s.238.038.092-.135c.081.038.173.119.254.038a.531.531,0,0,1,.373-.227c.227-.027.309.011.4-.227.119-.292-.292-.292-.292-.292s.189-.173.4-.4a1.825,1.825,0,0,0,.617-.926.653.653,0,0,0-.563-.79l-3.307,1.018-4.043-.2L517.9,1078.7h0Z" transform="translate(-501.747 -1042.015)" fill="#927d49" fill-rule="evenodd"/>
      <path id="Path_97" data-name="Path 97" d="M413.227,849.977a1.16,1.16,0,0,0-.173.454c-.066.319-.038.282-.092.509s-.72,2.49-.471,3.253.682,1.045.953,1.662a2.393,2.393,0,0,1,.135.336c.092.4.011.709.119,1.11a1.227,1.227,0,0,0,.281.455c.321.335.844.655,1.07.882.319.336.774,1.018,1.353,1.082a1.951,1.951,0,0,0,1.11-.308,9.228,9.228,0,0,1,.856-.642,3.193,3.193,0,0,1,.72-.216,3.261,3.261,0,0,1,1.153-.054,11.109,11.109,0,0,0,1.82.363,4.95,4.95,0,0,0,1.18-.162c.774-.227,1.71-.617,2.327-.79.363-.107.655-.135.953-.2a2.054,2.054,0,0,0,1.18-.59c-.162-.189-.362-.482-1.445-.471a19.1,19.1,0,0,0-3.345.817,2.813,2.813,0,0,1-1.781-.081c-.764-.284-.789-.473-.789-.473a3.424,3.424,0,0,1-1.138-1.992,3.565,3.565,0,0,1,.872-3.464.572.572,0,0,0,.173-.482,2.18,2.18,0,0,0,.417-1.5c-.173-.72-1.283-.574-1.283-.574l-6.154,1.076h0Z" transform="translate(-399.711 -822.376)" fill="#6e6342" fill-rule="evenodd"/>
      <path id="Path_98" data-name="Path 98" d="M458.785,946.91a.561.561,0,0,0-.065.292c.011.146.054.335.492.763a.934.934,0,0,1,.292.79,1.368,1.368,0,0,0,.7-.2c.4-.189.535.146.535.146a1.135,1.135,0,0,1,.374-.119.817.817,0,0,0,.335-.107,4.819,4.819,0,0,0,.882.709c.374.2.59.336.774.2a.512.512,0,0,0,.162-.471,1.405,1.405,0,0,0-.162-.281c-.119-.173-.309-.374-.321-.535-.027-.373.281-.817.216-.926s-.308-.135-.909.081a13.536,13.536,0,0,1-3.307-.341h0Z" transform="translate(-444.187 -916.794)" fill="#39331f" fill-rule="evenodd"/>
      <path id="Path_99" data-name="Path 99" d="M494.268,968.484s-.308-.292-.2-1.71a1.763,1.763,0,0,1,.39.038A3.072,3.072,0,0,1,494.268,968.484Z" transform="translate(-478.273 -935.979)" fill="#292311" fill-rule="evenodd"/>
      <path id="Path_100" data-name="Path 100" d="M432.352,810.988a.856.856,0,0,0,.119-.107,2.687,2.687,0,0,0-.2,2.262,3,3,0,0,0,2.647,2.235,3.033,3.033,0,0,0,2.636-1.472c.292-.363.628-.817.926-1.126.444-.482.79-.617.79-1.083,0-.953-.974-1.38-2.409-1.808a5.472,5.472,0,0,0-3.4-.082,1.859,1.859,0,0,0-1.11,1.18h0Z" transform="translate(-418.503 -783.999)" fill="#252211" fill-rule="evenodd"/>
      <path id="Path_101" data-name="Path 101" d="M567.781,1013.964l.107-.054s.027-.428.2-.417a.335.335,0,0,1,.238.336.2.2,0,0,1-.227.2.533.533,0,0,1-.319-.065Z" transform="translate(-549.656 -981.142)" fill="#3f3824" fill-rule="evenodd"/>
      <path id="Path_102" data-name="Path 102" d="M554.31,975.591s.107-.038.238.092a1.942,1.942,0,0,1,.72.038.549.549,0,0,1,.19.173,1.881,1.881,0,0,1-.845,0C554.31,975.792,554.31,975.591,554.31,975.591Z" transform="translate(-536.635 -944.435)" fill="#2d2815" fill-rule="evenodd"/>
      <path id="Path_103" data-name="Path 103" d="M596.821,968.337a1.341,1.341,0,0,0-.6-.293c-.054-.011-.065.027-.107.027s-.038-.092-.038-.092l-.175.092s-.027.038.065.107.217.119.254.227a.929.929,0,0,0,.054.162.579.579,0,0,0,.292-.054c.092-.054.266-.143.255-.178h0Z" transform="translate(-576.888 -937.084)" fill="#82764f" fill-rule="evenodd"/>
      <path id="Path_104" data-name="Path 104" d="M545.21,998.229a.456.456,0,0,1,.417-.39.418.418,0,0,1,.444.335l-.217.216c0-.005-.162-.233-.642-.162Z" transform="translate(-527.817 -965.988)" fill="#2d2816" fill-rule="evenodd"/>
      <path id="Path_105" data-name="Path 105" d="M592.107,957.057a1.13,1.13,0,0,1-.644.281.255.255,0,0,1,0-.335c.119-.173.254-.227.39-.173A.317.317,0,0,1,592.107,957.057Z" transform="translate(-572.529 -926.267)" fill="#574f35" fill-rule="evenodd"/>
      <path id="Path_106" data-name="Path 106" d="M631.622,953.185c.011-.054-.027-.065,0-.092s.173-.081.2-.054c.011.011,0,.054,0,.107a.256.256,0,0,1-.027.146.219.219,0,0,1-.2.065c-.054-.016-.065-.092-.065-.107C631.557,953.24,631.622,953.213,631.622,953.185Zm.924-.584c0-.027.092-.081.146-.081.081,0,.081.065.092.081.027.011.027-.011.054.038s.065.135.038.189a.2.2,0,0,1-.162.081A1.439,1.439,0,0,1,632.546,952.6Z" transform="translate(-611.401 -922.131)" fill="#82764f" fill-rule="evenodd"/>
      <path id="Path_107" data-name="Path 107" d="M607.859,974.659a.755.755,0,0,1,.281.162c-.054.038-.136.081-.136.081a.405.405,0,0,0-.146-.244Z" transform="translate(-588.447 -943.531)" fill="#6e6342" fill-rule="evenodd"/>
      <path id="Path_108" data-name="Path 108" d="M600.314,897.657c-.027-.027.081-.092.146-.081s.092.054.162.065.081-.027.107-.054.119-.011.135,0a.317.317,0,0,1,.027.038.15.15,0,0,1,.054-.107.17.17,0,0,1,.146-.027.8.8,0,0,1,.054.2c-.011.027-.173.065-.2.038a1.92,1.92,0,0,0,.162.227c.016.027-.119.092-.173.081a2.208,2.208,0,0,1-.622-.379Zm.709-.9a.125.125,0,0,0-.054-.065c-.038-.011-.162,0-.162.065a2.013,2.013,0,0,0,.227.617c.136.189.227.346.319.39a.126.126,0,0,0,.162-.054,3.281,3.281,0,0,0,.027-.7,6.418,6.418,0,0,0-.054-.953.144.144,0,0,0-.173.027,5.046,5.046,0,0,0-.292.671h0Z" transform="translate(-581.171 -867.516)" fill="#585136" fill-rule="evenodd"/>
      <path id="Path_109" data-name="Path 109" d="M592.312,991.989a.439.439,0,0,0-.374-.038c-.173.081-.162.4-.162.4a.256.256,0,0,0,.238-.027.727.727,0,0,0,.3-.335Z" transform="translate(-572.886 -960.255)" fill="#574f35" fill-rule="evenodd"/>
      <path id="Path_110" data-name="Path 110" d="M613.917,941.758c-.011-.107-.107-.107-.107-.162a.122.122,0,0,1,.119-.092c.054,0,.107.065.173.107s.162.107.173.189-.107.308-.238.308-.092-.244-.119-.352Zm1.045-.146s-.216.065-.2,0,.065-.081.136-.081a.214.214,0,0,1,.135-.065.118.118,0,0,1,.081.027s.146-.065.189-.027.011.038.038.081a.381.381,0,0,1,.065.162c0,.043-.162.135-.293.119C614.961,941.8,614.988,941.639,614.961,941.612Zm1.261-.244s.065.038.011.081a.879.879,0,0,1-.39.119c-.162,0-.308.027-.308-.027s.135-.162.216-.189a.173.173,0,0,1,.135-.065c.065,0,.319-.027.39-.038s.119.027.081.081C616.341,941.368,616.222,941.368,616.222,941.368Zm.373-1.671s-.081.173-.173.173-.092-.038-.092-.065.092-.135.081-.162c-.027,0-.092,0-.081-.065s.092-.119.173-.107a.356.356,0,0,1,.217-.081c.092,0,.173.027.173.081s-.107.173-.146.2c-.043.043-.1.071-.151.027Zm-1.234,3.2s-.107.011-.107.065c0,.027.027.027.065.011a.3.3,0,0,0,.065-.011c.011.011.011.065.092.065a.517.517,0,0,0,.189-.065c.065-.027.119-.054.119-.107a.161.161,0,0,0-.162-.136.215.215,0,0,0-.119.027s-.027-.054-.119,0-.081.054-.054.081c.048.043.032.071.032.071Zm-.612.563c0-.027.135-.081.173-.065a.689.689,0,0,1,.146.238c0,.027-.135.092-.189.092a.251.251,0,0,1-.146-.107c0-.011.065-.027.065-.038.016-.027-.048-.092-.048-.119Zm-.428-.79c.027-.011.027-.038.065-.065a.093.093,0,0,1,.081-.011.131.131,0,0,1,.092-.065c.065-.011.119,0,.107.027,0,.081.054.135.054.2s-.038.146-.173.2a.957.957,0,0,1-.346.027.178.178,0,0,1-.027-.173.449.449,0,0,1,.146-.141h0Z" transform="translate(-594.308 -909.618)" fill="#82764f" fill-rule="evenodd"/>
      <path id="Path_111" data-name="Path 111" d="M630.217,1032.31s-.092.054-.092.081a.238.238,0,0,0-.011.081c0,.016.119-.011.135-.027S630.217,1032.338,630.217,1032.31Z" transform="translate(-609.987 -999.336)" fill="#6e6342" fill-rule="evenodd"/>
      <path id="Path_112" data-name="Path 112" d="M603.983,1024.415a1.134,1.134,0,0,1,.216.027c.054.027.092.081.038.146s-.107.162-.227.146c-.135-.011-.265-.081-.265-.135a.259.259,0,0,1,.065-.189c.054-.043.081-.016.173.005h0Z" transform="translate(-584.471 -991.677)" fill="#585136" fill-rule="evenodd"/>
      <path id="Path_113" data-name="Path 113" d="M588.1,1026.7a1.522,1.522,0,0,0-.216.2c-.054.065-.319.4-.4.471a1.024,1.024,0,0,1,.092-.135.555.555,0,0,0-.227.292c-.065.2.363.309.644.39s.39.107.39.107a3.027,3.027,0,0,1-.265-.492c-.107-.255-.162-.282-.092-.4.054-.119.135-.2.135-.292C588.13,1026.753,588.1,1026.7,588.1,1026.7Z" transform="translate(-568.613 -993.973)" fill="#574f35" fill-rule="evenodd"/>
      <path id="Path_114" data-name="Path 114" d="M435.661,1031.334a.326.326,0,0,0,.119,0,5.517,5.517,0,0,1,1.808-.266,9.673,9.673,0,0,1,1.954.321c1.11.292,2.49.871,3.383,1.2.238.092.471.254.642.319a4.09,4.09,0,0,0,1.11.336,4.335,4.335,0,0,0,1.456-.2c.617-.135,1.672-.2,2.6-.336a5.314,5.314,0,0,0,.882-.2,4.646,4.646,0,0,1-2.5,1,7.824,7.824,0,0,1-2.154.027,6.561,6.561,0,0,1-1.218-.217c-.319-.092-.974-.336-1.781-.535-.563-.146-1.191-.255-1.911-.39a22.61,22.61,0,0,1-4.388-1.061Z" transform="translate(-422.168 -998.27)" fill="#252211" fill-rule="evenodd"/>
      <line id="Line_3" data-name="Line 3" x1="4.509" y1="4.211" transform="translate(8.982 23.088)" fill="none"/>
      <path id="Path_115" data-name="Path 115" d="M233.7,944.939c-.428.362-.882.709-1.326,1.044l-1.337,1.027c-.455.335-.9.682-1.353,1.018s-.909.655-1.391.963c.428-.363.882-.7,1.337-1.028s.926-.654,1.364-.988l1.337-1.029c.46-.335.9-.682,1.369-1.006Zm-2.365,3.789s.482-.4,1.082-.963a23.2,23.2,0,0,1,1.954-1.753l-3.037,2.717Z" transform="translate(-220.145 -914.975)" fill="#cfb66c" fill-rule="evenodd"/>
      <path id="Path_116" data-name="Path 116" d="M313.56,977.387c.238-.238.493-.471.747-.7l.39-.335c.119-.107.255-.227.374-.346.238-.238.471-.493.709-.736a4.573,4.573,0,0,1,.374-.346,1.009,1.009,0,0,1,.216-.146.63.63,0,0,1,.227-.119c-.054.081-.119.119-.173.189-.065.054-.119.119-.173.173-.119.119-.254.227-.374.336-.254.217-.519.428-.774.655s-.492.471-.747.7c-.276.233-.53.46-.8.678Zm3.237-2.165s-1.764,1.727-2.127,2.008Z" transform="translate(-303.601 -943.672)" fill="#cfb66c" fill-rule="evenodd"/>
      <path id="Path_117" data-name="Path 117" d="M346.787,990.439a5.749,5.749,0,0,1-.509.519l-.535.509c-.173.173-.336.346-.519.519s-.362.321-.563.471l.519-.509c.173-.173.363-.319.547-.492l.52-.509C346.424,990.77,346.6,990.6,346.787,990.439Zm.081.936a11.251,11.251,0,0,1-.574,1.326c-.455.909-1.136,2.046-1.434,2.625Z" transform="translate(-333.691 -959.085)" fill="#cfb66c" fill-rule="evenodd"/>
      <path id="Path_118" data-name="Path 118" d="M352.423,1016.689a1.518,1.518,0,0,1-.119.547,5.366,5.366,0,0,1-.216.509c-.081.162-.173.336-.265.493s-.2.319-.282.482l-.547.963c-.189.321-.374.644-.574.953a8.833,8.833,0,0,1,.493-.99c.189-.321.363-.642.535-.974a5.479,5.479,0,0,0,.227-.508c.081-.173.162-.336.227-.493.081-.173.146-.336.227-.492a3.178,3.178,0,0,1,.292-.487Z" transform="translate(-339.264 -984.443)" fill="#cfb66c" fill-rule="evenodd"/>
      <path id="Path_119" data-name="Path 119" d="M447.44,1141.079a2.679,2.679,0,0,0-.482,1.607C447.1,1142.216,447.288,1141.5,447.44,1141.079Zm.509.711s-.189,1.927-.346,2.874A11.606,11.606,0,0,0,447.949,1141.79Zm3.545,2.988a20.35,20.35,0,0,0-.817,3.009c.173-.673.509-2.048.817-3.011Z" transform="translate(-432.795 -1105.094)" fill="#dec270" fill-rule="evenodd"/>
      <path id="Path_120" data-name="Path 120" d="M626.67,1137s1.3,2.143,2.273,3.973A9.012,9.012,0,0,0,626.67,1137Z" transform="translate(-606.729 -1100.938)" fill="#cbaf59" fill-rule="evenodd"/>
      <path id="Path_121" data-name="Path 121" d="M724.521,1225.429a39.39,39.39,0,0,1,1.927,3.891A5.947,5.947,0,0,0,724.521,1225.429Z" transform="translate(-701.452 -1186.557)" fill="#e3c677" fill-rule="evenodd"/>
      <path id="Path_122" data-name="Path 122" d="M877.38,995.445c.216-.135.644-.872,1.018-1.055a2.558,2.558,0,0,0,.99-.6,2.385,2.385,0,0,1,1.163-.936c1.029-.444.321-1.018.321-1.018a3.33,3.33,0,0,1,.362-.308,1.026,1.026,0,0,0,.547-.872,3.792,3.792,0,0,0-.763-2.37c.574-.119,1.672-.2,2.355-.373a3.365,3.365,0,0,0,1.153-.482,1.314,1.314,0,0,1,.281-1.553,9.049,9.049,0,0,0,1.781-2.116,5.2,5.2,0,0,0-3.264.417,2.484,2.484,0,0,1,.309.173,6.122,6.122,0,0,0-1.661.709c-.774.655-.872,1.191-1.71,1.591s-1.683.292-2.381.617a6.289,6.289,0,0,0-1.056.72c.054.065-.011.173.092.265-.065.092-.444.709-.828.709.038.146.363.254.363.254a1.746,1.746,0,0,1-.844.217,6.146,6.146,0,0,0,1.407,1.18c-.065.135-.336.336-.227.59s.428.6,1.662.882a10.91,10.91,0,0,1-2.355.038,3.9,3.9,0,0,0-1.764-.038c.065.065.238.065.39.238-.162.011-1.18-.119-1.526.336a2.95,2.95,0,0,0-.492,1.764.461.461,0,0,0-.282.59c.092.336.574.444.882.655.308.227.335.308.628.254.308-.065.763-.373,1.028-.373a.691.691,0,0,1,.455.2s.72-.346.79-.281.011.482.081.547a5.185,5.185,0,0,0,1.1-.568Z" transform="translate(-845.395 -953.06)" fill="#ecd592" fill-rule="evenodd"/>
      <path id="Path_123" data-name="Path 123" d="M490.843,425.148c-3.383-7.111-11.745-8.429-11.745-8.429H455.24l.092,7.243h4.751v16.175H455.24v7.23h23.2c5.591,0,10.072-4.574,10.072-4.574,7.177-8.292,2.333-17.646,2.333-17.646Zm-12.281,12.773s-1.82,2.137-3.8,2.137H470.8l-.094-16.078h5.082s2.355.4,4,4.194C479.791,428.175,481.972,433.607,478.562,437.921Z" transform="translate(-442.813 -401.852)" fill="rgba(255,255,255,0.8)" fill-rule="evenodd"/>
    </g>
  </g>
</svg>
