<svg id="litecoin-ltc-logo" xmlns="http://www.w3.org/2000/svg" width="60" height="60" viewBox="0 0 60 60">
  <ellipse id="Ellipse_4" data-name="Ellipse 4" cx="24.828" cy="24.828" rx="24.828" ry="24.828" transform="translate(5.172 5.172)" fill="#fff"/>
  <path id="Path_130" data-name="Path 130" d="M30,0A30,30,0,1,0,60,30h0A29.913,29.913,0,0,0,30.174,0Zm.508,31.017L27.385,41.55H44.092a.843.843,0,0,1,.872.814v.276l-1.453,5.012a1.082,1.082,0,0,1-1.09.8H16.852l4.286-14.6L16.344,35.3l1.09-3.341,4.794-1.453,6.029-20.484a1.1,1.1,0,0,1,1.09-.8h6.465a.843.843,0,0,1,.872.814v.276L31.6,27.6l4.794-1.453-1.017,3.487Z" fill="#345d9d"/>
</svg>
