<svg xmlns="http://www.w3.org/2000/svg" width="60" height="60.692" viewBox="0 0 60 60.692">
  <g id="Group_938" transform="translate(-953.47 -231.963)">
    <g id="Group_931" transform="translate(953.47 233.922)">
      <path id="Path_8573" d="M1152.433,256.51a38.132,38.132,0,0,0-4.209,4.994l-.4-.129a28.813,28.813,0,0,0-7.052-1.366c-.72-.055-3.406-.055-4.283,0a24.909,24.909,0,0,0-6.987,1.375c-.092.037-.176.065-.259.092a37.588,37.588,0,0,0-4.347-4.957,30.22,30.22,0,0,1,24.645-1.3c.859.323,1.7.7,2.52,1.108Z" transform="translate(-1108.69 -253.196)" fill="#f00500"/>
      <path id="Path_8574" d="M1011.868,410.971a29.345,29.345,0,0,1-5.236,9.219,32.609,32.609,0,0,1-4.1,4.027,30.171,30.171,0,0,1-11.81,5.849,30.833,30.833,0,0,1-14.513,0,30.108,30.108,0,0,1-11.81-5.849,32.6,32.6,0,0,1-4.1-4.027,29.062,29.062,0,0,1-5.236-28.238,30.731,30.731,0,0,1,2.384-5.163c.44-.751.982-1.6,1.244-1.943.9,3.877,2,7.285,2.413,8.515a2.1,2.1,0,0,1-.1.207,34.146,34.146,0,0,0-3.637,13.246c0,.056-.009.122-.009.178a8.2,8.2,0,0,0,.187,2.863c.7,2.676,2.861,5.623,6.246,8.515,5.545,4.731,13.063,8.149,18.758,8.543,5.938.4,14.7-3.079,20.534-8.167a29.373,29.373,0,0,0,2.581-2.6,14.225,14.225,0,0,0,1.375-1.84c-.019,0,0-.019.038-.038s.056-.047.037-.066.009-.038.037-.047.047-.028.037-.047,0-.038.037-.047a.042.042,0,0,0,.028-.056c-.009-.019,0-.038.019-.038s.037-.028.037-.047.019-.047.037-.047a.04.04,0,0,0,.037-.038.989.989,0,0,1,.122-.216c.14-.216.7-1.22.776-1.389a12.99,12.99,0,0,0,1.029-3.37,9.614,9.614,0,0,0,.084-1.69c-.009-.038-.009-.1-.019-.207-.019-.188-.028-.469-.047-.751-.019-.422-.056-1.014-.084-1.3a27.615,27.615,0,0,0-3.544-11.434,3.253,3.253,0,0,1-.206-.394.584.584,0,0,1-.038-.075h0c.29-.873,1.478-4.525,2.422-8.7l.019.019.14.188c.243.329.888,1.3,1.178,1.774a28.928,28.928,0,0,1,2.646,24.69Z" transform="translate(-953.47 -372.199)" fill="#f00500"/>
      <path id="Path_8575" d="M1349.354,518.185a3.1,3.1,0,0,1-.9.914,15.432,15.432,0,0,1-5.87,2.215,7.219,7.219,0,0,1-3.037.083c-.259-.129-.3-.231-.2-.563a4.489,4.489,0,0,1,1.8-2.16c.5-.36,2.52-1.588,3.461-2.1a12.228,12.228,0,0,1,3.655-1.477,1.877,1.877,0,0,1,.692,0c.166.065.351.554.425,1.145A15.056,15.056,0,0,1,1349.354,518.185Z" transform="translate(-1303.128 -490.523)"/>
      <path id="Path_8576" d="M1111.931,522.183a1,1,0,0,1-.646.277,10.438,10.438,0,0,1-1.818-.046,19.1,19.1,0,0,1-5.547-1.6,6.982,6.982,0,0,1-1.911-1.283l-.258-.268-.028-.351a9.656,9.656,0,0,1,.037-1.911,2.511,2.511,0,0,1,.286-.812c.074-.092.074-.092.406-.092a4,4,0,0,1,1.3.24,25.417,25.417,0,0,1,4.883,2.437,8.463,8.463,0,0,1,2.824,2.2A1.844,1.844,0,0,1,1111.931,522.183Z" transform="translate(-1087.797 -491.465)"/>
      <path id="Path_8577" d="M1221.676,635.967c0,.028-.111.471-.249,1s-.249.951-.249.969a1.589,1.589,0,0,1-.3.009h-.3l-.406.96c-.221.526-.425,1.015-.452,1.089l-.055.129-.194-.314-.194-.314v-2.557l-.074.018c-.157.037-1.274.185-1.763.231a25.162,25.162,0,0,1-6.064-.129c-.323-.046-.6-.083-.609-.074s0,.6.018,1.329l.028,1.311-.157.24c-.083.129-.166.24-.166.249-.028.028-.12-.12-.332-.545a6.235,6.235,0,0,1-.517-1.4l-.064-.268-.286.018-.286.028-.074-.342c-.037-.185-.083-.471-.1-.628l-.028-.3-.24-.212c-.139-.12-.277-.24-.3-.259a.2.2,0,0,1-.065-.157v-.111l1.154.009,1.154.009.037.12.037.12.4.019c.222.009.923.028,1.551.046l1.154.028.3-.462.3-.461h.388l-.009-.96-.009-.96-.508-.221c-1.634-.72-2.594-1.541-2.954-2.538a3.537,3.537,0,0,1-.092-1.2,3.652,3.652,0,0,1,.055-1.2,1.342,1.342,0,0,1,.95-.941,21.992,21.992,0,0,1,2.751-.046l2.566.009.286.138a1.605,1.605,0,0,1,.692.545,1.525,1.525,0,0,1,.286,1.089,8.122,8.122,0,0,1-.139,1.772,3.826,3.826,0,0,1-.535,1.062,4.917,4.917,0,0,1-2.068,1.449l-.222.083.009.969.009.969.2.018.2.018.277.415.268.415h1.237c.683,0,1.283.009,1.338.018.092.018.111.009.2-.148l.111-.166h1.062A3.347,3.347,0,0,1,1221.676,635.967Z" transform="translate(-1184.29 -592.17)"/>
      <path id="Path_8578" d="M1256.832,742.184c-.175.1-.3.148-.323.129s-.157-.12-.3-.222l-.249-.2-.259.277c-.563.609-.581.637-.748.646-.259.028-.314-.018-.628-.489-.166-.24-.3-.443-.3-.443s-.12-.018-.259-.028l-.258-.028-.12.249-.12.249-.212-.065a4.488,4.488,0,0,1-.489-.194l-.277-.138V741.4l2.455.009,2.455.009.009.249C1257.229,741.963,1257.238,741.954,1256.832,742.184Z" transform="translate(-1224.324 -695.714)"/>
    </g>
    <path id="Path_8579" d="M1046.881,584.421c-.009-.037-.009-.1-.019-.2a20.142,20.142,0,0,0-14.625,4.458S1030.317,580,1021.322,580s-12.33,8.676-12.33,8.676c-5.04-5.344-11.786-4.957-14.222-4.606,0,.055-.009.12-.009.175a7.921,7.921,0,0,0,.187,2.815c.7,2.631,2.867,5.529,6.259,8.372,5.556,4.652,13.089,8.012,18.795,8.4,5.949.4,14.728-3.028,20.575-8.03a29.17,29.17,0,0,0,2.586-2.557,14,14,0,0,0,1.377-1.809c-.019,0,0-.018.037-.037s.056-.046.037-.065.009-.037.037-.046.047-.028.038-.046,0-.037.037-.046a.041.041,0,0,0,.028-.055c-.01-.018,0-.037.018-.037s.038-.028.038-.046.019-.046.037-.046a.04.04,0,0,0,.038-.037.953.953,0,0,1,.122-.212c.141-.212.7-1.2.778-1.366a12.588,12.588,0,0,0,1.031-3.314A11.023,11.023,0,0,0,1046.881,584.421Zm-23.423,11.261c-.178.1-.3.148-.328.129s-.159-.12-.3-.222l-.253-.2-.262.277c-.572.609-.59.637-.759.646-.262.028-.318-.018-.637-.489-.169-.24-.3-.443-.3-.443s-.122-.018-.262-.028l-.262-.028-.122.249-.122.249-.216-.065a4.627,4.627,0,0,1-.5-.194l-.281-.139V594.9l2.492.009,2.492.009.009.249C1023.861,595.46,1023.871,595.451,1023.458,595.682Zm4.685-1.661c-.141.526-.253.951-.253.969a1.62,1.62,0,0,1-.3.009h-.3l-.4.969c-.225.526-.431,1.015-.459,1.089l-.056.129-.2-.314-.2-.314V594l-.075.019c-.159.037-1.293.185-1.79.231a25.921,25.921,0,0,1-6.155-.129c-.328-.046-.609-.083-.618-.074s0,.6.019,1.329l.028,1.311-.159.24c-.084.129-.169.24-.169.249-.028.028-.122-.12-.337-.545a6.169,6.169,0,0,1-.525-1.4l-.066-.268-.29.019-.29.028-.075-.342c-.037-.184-.084-.471-.1-.628l-.028-.3-.244-.212c-.141-.12-.281-.24-.309-.258a.2.2,0,0,1-.066-.157v-.111l1.171.009,1.171.009.037.12.037.12.4.018c.225.009.937.028,1.574.046l1.171.028.3-.461.309-.461h.394l-.009-.96-.009-.96-.515-.222c-1.658-.72-2.633-1.542-3-2.538a3.487,3.487,0,0,1-.094-1.2,3.615,3.615,0,0,1,.056-1.2,1.352,1.352,0,0,1,.965-.942,22.619,22.619,0,0,1,2.792-.046l2.6.009.29.138a1.626,1.626,0,0,1,.7.545,1.509,1.509,0,0,1,.29,1.089,8.011,8.011,0,0,1-.14,1.772,3.808,3.808,0,0,1-.543,1.061,4.991,4.991,0,0,1-2.1,1.449l-.225.083.009.969.009.969.206.018.206.018.281.415.271.415h1.256c.693,0,1.3.009,1.358.018.094.018.112.009.206-.148l.112-.166h1.078a4.6,4.6,0,0,1,1.078.037A6.3,6.3,0,0,0,1028.143,594.021Z" transform="translate(-37.448 -315.13)" fill="#fff"/>
    <path id="Path_8580" d="M985.923,624.1a8.545,8.545,0,0,0-.923.175" transform="translate(-28.62 -355.468)" fill="none"/>
    <path id="Path_8581" d="M1552.021,625.82s-.3-.065-.822-.12" transform="translate(-541.785 -356.919)" fill="none"/>
    <path id="Path_8582" d="M1047.056,267.567c-.018-.415-.056-1-.084-1.283a26.788,26.788,0,0,0-3.551-11.242,3.2,3.2,0,0,1-.206-.388.527.527,0,0,1-.038-.074h0c.29-.858,1.48-4.449,2.427-8.556,1.283-5.575,2.1-12.092-.393-14.048,0,0-4.31-.314-10.082,5.261a38.3,38.3,0,0,0-4.272,4.994l-.4-.129a29.636,29.636,0,0,0-7.158-1.366c-.731-.055-3.457-.055-4.348,0a25.618,25.618,0,0,0-7.093,1.375c-.094.037-.178.065-.262.092a37.749,37.749,0,0,0-4.413-4.957c-6.006-5.6-10.475-5.28-10.475-5.28-2.642,2.021-1.743,8.833-.375,14.593.9,3.812,2.005,7.163,2.417,8.372a2.079,2.079,0,0,1-.1.2A33.087,33.087,0,0,0,995,268.158c2.445-.351,9.182-.748,14.232,4.606,0,0,3.335-8.676,12.33-8.676s10.915,8.676,10.915,8.676a20.187,20.187,0,0,1,14.626-4.458C1047.094,268.121,1047.075,267.844,1047.056,267.567Zm-46.537-16.116s-3.5-8.63-2.6-13.559h0a4.718,4.718,0,0,1,.871-2.114s3.973.388,10.381,7.4a18.357,18.357,0,0,0-2.848,1.818.033.033,0,0,1-.019.009,22.3,22.3,0,0,0-5.781,6.443Zm14.869,12.821a1.025,1.025,0,0,1-.656.277,10.757,10.757,0,0,1-1.846-.046,19.619,19.619,0,0,1-5.631-1.6,7.1,7.1,0,0,1-1.939-1.283l-.262-.268-.028-.351a9.494,9.494,0,0,1,.037-1.911,2.485,2.485,0,0,1,.29-.812c.075-.092.075-.092.412-.092a4.111,4.111,0,0,1,1.321.24,25.972,25.972,0,0,1,4.956,2.437,8.575,8.575,0,0,1,2.867,2.2A1.828,1.828,0,0,1,1015.388,264.272Zm22.074-3.055a3.123,3.123,0,0,1-.909.914,15.8,15.8,0,0,1-5.959,2.215,7.433,7.433,0,0,1-3.083.083c-.262-.129-.3-.231-.206-.563a4.5,4.5,0,0,1,1.827-2.16c.506-.36,2.558-1.588,3.514-2.1a12.525,12.525,0,0,1,3.71-1.477,1.934,1.934,0,0,1,.7,0c.168.065.356.554.431,1.145A14.879,14.879,0,0,1,1037.462,261.217ZM1035.906,245l-.019-.009a17.524,17.524,0,0,0-2.755-1.818c6.193-7.015,10.025-7.4,10.025-7.4a4.966,4.966,0,0,1,.843,2.114h0c.871,4.929-2.511,13.568-2.511,13.568a22.078,22.078,0,0,0-5.584-6.452Z" transform="translate(-37.697 0)" fill="#ffa409"/>
    <path id="Path_8583" d="M1377.146,343.2c-.019.018-.028.046-.046.065" transform="translate(-384.017 -100.97)" fill="none"/>
    <path id="Path_8584" d="M1508.464,476.9c-.046.129-.064.194-.064.194" transform="translate(-502.935 -222.033)" fill="none"/>
    <g id="Group_934" transform="translate(995.644 235.769)">
      <g id="Group_933">
        <g id="Group_932">
          <path id="Path_8585" d="M1412.716,275.314c-.72-.092-4.126-.111-7.984,7.116l-.019-.009A17.23,17.23,0,0,0,1402,280.6c6.1-7.015,9.876-7.4,9.876-7.4A4.9,4.9,0,0,1,1412.716,275.314Z" transform="translate(-1402 -273.2)" fill="#ff9300"/>
        </g>
        <path id="Path_8586" d="M1437.11,309.488a21.893,21.893,0,0,0-5.51-6.452c3.858-7.227,7.255-7.209,7.984-7.116h0C1440.443,300.858,1437.11,309.488,1437.11,309.488Z" transform="translate(-1428.868 -293.806)" fill="#ff8300"/>
        <path id="Path_8587" d="M1518.238,296.128l-.139-.028Z" transform="translate(-1507.383 -293.986)" fill="#ff8300"/>
      </g>
    </g>
    <path id="Path_8588" d="M1172.286,343.288c-.092-.129-.194-.258-.286-.388" transform="translate(-198.095 -100.698)" fill="none"/>
    <path id="Path_8589" d="M1035,480.8c.1.314.166.48.166.48" transform="translate(-74.005 -225.567)" fill="none"/>
    <g id="Group_937" transform="translate(960.026 235.769)">
      <g id="Group_936">
        <g id="Group_935" transform="translate(0.138)">
          <path id="Path_8590" d="M1037.094,280.6a18.051,18.051,0,0,0-2.806,1.818.032.032,0,0,1-.018.009c-4-7.237-7.513-7.209-8.27-7.116a4.756,4.756,0,0,1,.859-2.114C1026.867,273.2,1030.781,273.588,1037.094,280.6Z" transform="translate(-1026 -273.2)" fill="#ff9300"/>
        </g>
        <path id="Path_8591" d="M1032.94,303.036a22.124,22.124,0,0,0-5.7,6.452s-3.452-8.63-2.566-13.568h0C1025.417,295.827,1028.943,295.809,1032.94,303.036Z" transform="translate(-1024.522 -293.806)" fill="#ff8300"/>
        <path id="Path_8592" d="M1024.647,296.1l-.148.028Z" transform="translate(-1024.5 -293.986)" fill="#ff8300"/>
      </g>
    </g>
    <path id="Path_8593" d="M1364.37,449.468s-2.954.185-2.585-2.123a3.049,3.049,0,0,1,3.323-2.492c.646.092,3.231,1.015,2.769,2.954s-1.108,1.569-1.477,1.661A14.633,14.633,0,0,1,1364.37,449.468Z" transform="translate(-370.049 -192.948)" fill="#fff"/>
    <path id="Path_8594" d="M1128.37,449.468s-2.953.185-2.584-2.123a3.049,3.049,0,0,1,3.323-2.492c.646.092,3.23,1.015,2.769,2.954s-1.108,1.569-1.477,1.661A14.639,14.639,0,0,1,1128.37,449.468Z" transform="translate(-156.15 -192.948)" fill="#fff"/>
  </g>
</svg>
